<svg xmlns="http://www.w3.org/2000/svg" xmlns:xlink="http://www.w3.org/1999/xlink" viewBox="52.35 328.84 965.8 244.04"><defs><style>.cls-1{fill:url(#linear-gradient);}.cls-2{fill:url(#linear-gradient-2);}.cls-3{fill:url(#linear-gradient-3);}</style><linearGradient id="linear-gradient" x1="141.69" y1="579.09" x2="141.69" y2="325.45" gradientUnits="userSpaceOnUse"><stop offset="0" stop-color="#5a3fff"/><stop offset="1" stop-color="#ad5bff"/></linearGradient><linearGradient id="linear-gradient-2" x1="191.28" y1="579.09" x2="191.28" y2="325.45" xlink:href="#linear-gradient"/><linearGradient id="linear-gradient-3" x1="773.81" y1="491.82" x2="1018.15" y2="491.82" xlink:href="#linear-gradient"/></defs><g id="Layer_1" data-name="Layer 1"><path class="cls-1" d="M125.76,485.28c0-.1,0-.2,0-.3a42.89,42.89,0,0,1,12.36-27.61l92.79-92.79-6.05-6.06A101,101,0,0,0,60,468.41a43.11,43.11,0,0,1,12.19-17.54,83.9,83.9,0,0,1,134.23-86L126,445.26a42.91,42.91,0,0,1-27.61,12.36l-.3,0a25.69,25.69,0,1,0,27.64,27.64Zm-24.5,6.46a8.56,8.56,0,1,1,7.38-7.37A8.56,8.56,0,0,1,101.26,491.74Z"/><path class="cls-2" d="M212.77,489.31l-59.34,59.34a26.92,26.92,0,0,1,0-38.07l49.14-49.14a42.94,42.94,0,0,1,27.6-12.36l.31,0a25.69,25.69,0,1,0-27.64-27.64l0,.3a42.88,42.88,0,0,1-12.35,27.61l-49.12,49.12a44.07,44.07,0,0,0,0,62.32l12.09,12.09,71.45-71.44a101,101,0,0,0,24.85-40.84,42.69,42.69,0,0,1-20.62,5.67A84.29,84.29,0,0,1,212.77,489.31ZM227.33,415a8.56,8.56,0,1,1-7.38,7.37A8.58,8.58,0,0,1,227.33,415Z"/><path d="M339.73,369.84H353.9v38.85h23.89v11.23H339.73Z"/><path d="M417.49,410.19H396.32l-3.94,9.73H377.93L400,369.84H414l22.17,50.08H421.43Zm-4.15-10.45-6.43-16-6.44,16Z"/><path d="M487.82,369.84v50.08H476.16l-22.11-26.68v26.68H440.17V369.84h11.66l22.11,26.69V369.84Z"/><path d="M497.83,369.84h23.68c16.6,0,28,9.66,28,25s-11.37,25-28,25H497.83Zm23.11,38.78c8.51,0,14.24-5.08,14.24-13.74s-5.73-13.73-14.24-13.73H512v27.47Z"/><path d="M633.76,369.84l-16.24,50.08H602.35l-9.58-30.48-10,30.48H567.59l-16.24-50.08h14.59l10.09,32,10.59-32h13l10.09,32.27,10.52-32.27Z"/><path d="M670.68,410.19H649.5l-3.93,9.73H631.12l22.1-50.08h13.95l22.18,50.08H674.61Zm-4.15-10.45-6.44-16-6.44,16Z"/><path d="M701.51,381.07H686.13V369.84H731v11.23H715.68v38.85H701.51Z"/><path d="M733,394.88c0-15.24,11.66-26,27.54-26,9.23,0,16.67,3.36,21.53,9.44l-9,8.16c-3.15-3.79-7-5.87-11.8-5.87-8.23,0-14,5.73-14,14.31s5.72,14.31,14,14.31c4.79,0,8.65-2.08,11.8-5.87l9,8.16c-4.86,6.08-12.3,9.44-21.53,9.44C744.65,420.92,733,410.12,733,394.88Z"/><path d="M836,369.84v50.08H821.84V400.39H802.53v19.53H788.36V369.84h14.17v18.82h19.31V369.84Z"/><path d="M891.23,419.92l-.14-26.54L878.22,415h-6.3l-12.8-20.89v25.83H846V369.84h11.66l17.6,28.9,17.17-28.9h11.66l.14,50.08Z"/><path d="M947.82,410.19H926.65l-3.94,9.73H908.27l22.1-50.08h14l22.18,50.08H951.76Zm-4.15-10.45-6.43-16-6.44,16Z"/><path d="M1018.15,369.84v50.08h-11.66l-22.11-26.68v26.68H970.5V369.84h11.66l22.11,26.69V369.84Z"/><path d="M355.1,468.75H340V466h33.32v2.76H358.16V508H355.1Z"/><path d="M403.07,493.07h-27c.3,7.44,5.77,12.48,13.27,12.48a12.63,12.63,0,0,0,10-4.38l1.75,2a15,15,0,0,1-11.83,5.11c-9.49,0-16.15-6.61-16.15-15.91s6.42-15.91,15-15.91,14.95,6.48,14.95,15.79C403.13,492.47,403.07,492.77,403.07,493.07Zm-26.9-2.34h24c-.42-6.79-5.35-11.65-12-11.65S376.65,483.88,376.17,490.73Z"/><path d="M409,492.35c0-9.37,6.66-15.91,15.85-15.91,5,0,9.3,1.92,11.88,5.76l-2.22,1.62a11.43,11.43,0,0,0-9.66-4.68c-7.39,0-12.79,5.28-12.79,13.21s5.4,13.2,12.79,13.2a11.43,11.43,0,0,0,9.66-4.68l2.22,1.62c-2.58,3.78-6.9,5.77-11.88,5.77C415.67,508.26,409,501.65,409,492.35Z"/><path d="M473.24,489.7V508h-3V490c0-7.09-3.78-10.81-10.14-10.81-7.39,0-11.89,4.74-11.89,12.19V508h-3V463.47h3v19.75c2.16-4.26,6.48-6.78,12.31-6.78C468.14,476.44,473.24,480.94,473.24,489.7Z"/><path d="M513.65,489.7V508h-3V490c0-7.09-3.78-10.81-10.14-10.81-7.39,0-11.89,4.74-11.89,12.19V508h-3V476.68h2.88v6.78c2.1-4.38,6.49-7,12.43-7C508.54,476.44,513.65,480.94,513.65,489.7Z"/><path d="M522.65,492.35c0-9.31,6.66-15.91,15.67-15.91S554,483,554,492.35s-6.67,15.91-15.67,15.91S522.65,501.65,522.65,492.35Zm28.28,0c0-7.87-5.41-13.21-12.61-13.21s-12.61,5.34-12.61,13.21,5.4,13.2,12.61,13.2S550.93,500.21,550.93,492.35Z"/><path d="M563.29,463.47h3V508h-3Z"/><path d="M575.54,492.35c0-9.31,6.66-15.91,15.67-15.91s15.66,6.6,15.66,15.91-6.66,15.91-15.66,15.91S575.54,501.65,575.54,492.35Zm28.27,0c0-7.87-5.4-13.21-12.6-13.21s-12.61,5.34-12.61,13.21,5.4,13.2,12.61,13.2S603.81,500.21,603.81,492.35Z"/><path d="M644.39,476.68v28c0,10.51-5.1,15.25-15.18,15.25-5.71,0-11.17-1.8-14.35-5l1.62-2.28a18.56,18.56,0,0,0,12.67,4.56c8.34,0,12.24-3.84,12.24-12.19v-5.28c-2.58,4.56-7.38,7.14-13,7.14-8.89,0-15.61-6.3-15.61-15.24s6.72-15.19,15.61-15.19c5.76,0,10.62,2.64,13.14,7.32v-7.08Zm-2.94,14.95c0-7.39-5.4-12.49-12.84-12.49s-12.79,5.1-12.79,12.49,5.4,12.54,12.79,12.54S641.45,499,641.45,491.63Z"/><path d="M656.16,466.65a2.47,2.47,0,0,1,2.46-2.46,2.43,2.43,0,1,1-2.46,2.46Zm1,10h3V508h-3Z"/><path d="M699.26,493.07h-27c.3,7.44,5.76,12.48,13.27,12.48a12.63,12.63,0,0,0,10-4.38l1.74,2a15,15,0,0,1-11.82,5.11c-9.49,0-16.15-6.61-16.15-15.91s6.42-15.91,15-15.91,15,6.48,15,15.79C699.32,492.47,699.26,492.77,699.26,493.07Zm-26.89-2.34h24c-.42-6.79-5.34-11.65-12-11.65S672.85,483.88,672.37,490.73Z"/><path d="M704,504.23l1.39-2.4a18.22,18.22,0,0,0,11.28,3.78c6.61,0,9.25-2.34,9.25-5.88,0-9.12-20.77-2.4-20.77-14.71,0-4.74,4-8.58,11.88-8.58,4,0,8.29,1.2,10.75,3.06l-1.38,2.4a16.19,16.19,0,0,0-9.43-2.82c-6.12,0-8.82,2.52-8.82,5.88,0,9.43,20.77,2.76,20.77,14.71,0,5.1-4.38,8.59-12.37,8.59C711.39,508.26,706.47,506.51,704,504.23Z"/><polygon class="cls-3" points="773.81 489.32 1018.15 491.82 773.81 494.32 773.81 489.32"/></g></svg>