<svg xmlns="http://www.w3.org/2000/svg" version="1.1" viewBox="832.81 1932 3333.19 1011">
<path d="M0 0 C3.95196011 1.27730275 7.38876576 2.63348495 10.95703125 4.765625 C11.89160156 5.31863281 12.82617188 5.87164063 13.7890625 6.44140625 C15.28566406 7.33666016 15.28566406 7.33666016 16.8125 8.25 C25.31634624 13.27736565 33.86424302 18.20273473 42.5 23 C51.72974156 28.13552839 60.87238792 33.40213603 69.98046875 38.75 C77.10528309 42.92244029 84.28548765 46.98490371 91.5 51 C100.77445667 56.16217037 109.96627892 61.44916951 119.12109375 66.8203125 C125.87821523 70.77894068 132.67341662 74.6625232 139.5 78.5 C147.33635271 82.90510575 155.12136287 87.38842997 162.875 91.9375 C172.06657519 97.32813772 181.33334633 102.56806904 190.64404297 107.74975586 C198.81963993 112.31091186 206.9076146 117.00997555 214.98046875 121.75 C222.1052819 125.92243959 229.28546141 129.98495244 236.5 134 C245.72931402 139.13631389 254.87236973 144.40212535 263.98046875 149.75 C271.10528331 153.92244042 278.2854894 157.98489977 285.5 162 C293.94926 166.70292119 302.34129843 171.49145153 310.6875 176.375 C311.68563721 176.95709229 312.68377441 177.53918457 313.7121582 178.13891602 C317.97262349 180.62677635 322.22300028 183.12635441 326.4375 185.69140625 C327.08372314 186.07828613 327.72994629 186.46516602 328.39575195 186.86376953 C330.03426593 187.84567231 331.66409496 188.8420305 333.29296875 189.83984375 C336.56025787 191.24011051 337.62583221 190.94875396 341 190 C342.88316732 189.10386972 344.73183786 188.13348395 346.55078125 187.11328125 C348.16847412 186.21113892 348.16847412 186.21113892 349.81884766 185.29077148 C350.98355098 184.63161713 352.14809776 183.97218608 353.3125 183.3125 C354.52632536 182.63122715 355.74035841 181.95032422 356.95458984 181.26977539 C365.71893122 176.34460225 374.41003127 171.29616061 383.07739258 166.20239258 C390.16811794 162.04241464 397.3164277 157.99724751 404.5 154 C412.7220259 149.424336 420.8858143 144.76429252 429 140 C437.11419099 135.23570437 445.27809188 130.57588149 453.5 126 C462.65723315 120.90169076 471.7369317 115.68691945 480.77832031 110.38623047 C488.4079881 105.91721265 496.06977486 101.50638369 503.75 97.125 C504.33431793 96.79163635 504.91863586 96.45827271 505.5206604 96.11480713 C508.4919198 94.4199651 511.46363272 92.72592016 514.43554688 91.03222656 C519.71093295 88.02529256 524.98234438 85.01140383 530.25402832 81.99798584 C533.16918658 80.3317007 536.08460663 78.66587373 539 77 C540.16666792 76.33333552 541.33333459 75.66666886 542.5 75 C554.16666667 68.33333333 565.83333333 61.66666667 577.5 55 C578.07748993 54.67000504 578.65497986 54.34001007 579.24996948 54.00001526 C580.41673537 53.33329335 581.58350376 52.66657582 582.75027466 51.99986267 C585.66544378 50.33407716 588.58056947 48.66821573 591.49560547 47.00219727 C596.76337663 43.99162848 602.03146851 40.98162801 607.30116272 37.97442627 C619.44225362 31.04599473 631.57654578 24.10602539 643.6875 17.125 C645.29359131 16.19953369 645.29359131 16.19953369 646.93212891 15.25537109 C651.74741207 12.47545238 656.5529788 9.68166188 661.33203125 6.83984375 C662.52856323 6.12900635 662.52856323 6.12900635 663.74926758 5.40380859 C665.20342336 4.5372144 666.65526094 3.66671296 668.10424805 2.79150391 C672.7818544 0 672.7818544 0 675 0 C675 127.05 675 254.1 675 385 C684.24 390.28 693.48 395.56 703 401 C734.50000006 419.00000004 734.50000006 419.00000004 736.24996948 419.99998474 C737.41673537 420.66670665 738.58350376 421.33342418 739.75027466 422.00013733 C742.66544378 423.66592284 745.58056947 425.33178427 748.49560547 426.99780273 C753.76343195 430.00840313 759.03157559 433.01844147 764.30133057 436.02566528 C777.29103355 443.43839663 790.26572044 450.87611088 803.21582031 458.35791016 C814.611459 464.93788357 826.03889357 471.46191372 837.46777344 477.98388672 C842.7304792 480.98733176 847.99117186 483.99429965 853.25201416 487.00100708 C856.16792672 488.66748282 859.08396998 490.33372982 862 492 C863.16666729 492.66666557 864.33333396 493.33333224 865.5 494 C866.0775 494.33 866.655 494.66 867.25 495 C900.50000005 514.00000003 900.50000005 514.00000003 902.24993896 514.99996948 C903.41680407 515.66674664 904.58367419 516.33351503 905.75054932 517.00027466 C908.66422091 518.66517906 911.57780578 520.33023486 914.49121094 521.99560547 C919.77684891 525.01680142 925.06313903 528.03682799 930.35261536 531.05130005 C933.31883394 532.74179075 936.2845512 534.43315935 939.25 536.125 C939.8329483 536.45755798 940.41589661 536.79011597 941.01651001 537.13275146 C949.10245969 541.74788047 957.15572771 546.41621812 965.1875 551.125 C974.275672 556.45228942 983.44056159 561.62763538 992.64526367 566.75048828 C1000.82050338 571.311311 1008.90802456 576.01021626 1016.98046875 580.75 C1024.10528428 584.92244099 1031.2855139 588.98485497 1038.5 593 C1047.80267335 598.17861371 1057.02777759 603.47497836 1066.21118164 608.86206055 C1073.993484 613.42521661 1081.81653639 617.91306354 1089.66699219 622.35791016 C1090.4871582 622.82374512 1091.30732422 623.28958008 1092.15234375 623.76953125 C1092.87413818 624.17792236 1093.59593262 624.58631348 1094.33959961 625.00708008 C1096 626 1096 626 1097 627 C1097.0978687 629.03810321 1097.12371225 631.07966659 1097.12304783 633.12011814 C1097.12420167 633.76960748 1097.12535552 634.41909682 1097.12654433 635.08826765 C1097.12921731 637.29166324 1097.12468329 639.49498755 1097.12025452 641.69837952 C1097.12069008 643.28316609 1097.12156471 644.86795259 1097.12284368 646.4527387 C1097.12509157 650.8286928 1097.12106336 655.20462267 1097.11606562 659.58057368 C1097.1117655 664.2915749 1097.11320723 669.00257464 1097.1139679 673.71357727 C1097.11449341 681.88270964 1097.11134375 690.05183406 1097.10573006 698.22096443 C1097.09761876 710.0322994 1097.09500022 721.8436305 1097.09374207 733.65496796 C1097.09155096 752.81596064 1097.08488929 771.97694908 1097.07543945 791.13793945 C1097.06626684 809.7561033 1097.05918527 828.37426599 1097.05493164 846.99243164 C1097.05466892 848.13917522 1097.05440619 849.2859188 1097.05413551 850.46741218 C1097.05283051 856.2200249 1097.0515668 861.97263763 1097.05032361 867.72525036 C1097.03994917 915.48350318 1097.02232927 963.24175138 1097 1011 C1092.77279731 1009.63827942 1089.12089477 1008.09561107 1085.2734375 1005.8671875 C1083.62408203 1004.91779297 1083.62408203 1004.91779297 1081.94140625 1003.94921875 C1080.75257901 1003.25785576 1079.56377765 1002.56644827 1078.375 1001.875 C1077.12663437 1001.15437198 1075.87793002 1000.43433046 1074.62890625 999.71484375 C1072.03611824 998.22069053 1069.44480118 996.72403245 1066.85449219 995.22558594 C1060.91652652 991.79337999 1054.95716687 988.39873733 1049 985 C1046.6690474 983.66835961 1044.33844816 982.33610123 1042.0078125 981.00390625 C1037.90548259 978.65945698 1033.80247454 976.3162008 1029.69866943 973.97433472 C1016.70896645 966.56160337 1003.73427956 959.12388912 990.78417969 951.64208984 C979.388541 945.06211643 967.96110643 938.53808628 956.53222656 932.01611328 C951.2695208 929.01266824 946.00882814 926.00570035 940.74798584 922.99899292 C937.83207328 921.33251718 934.91603002 919.66627018 932 918 C930.83333271 917.33333443 929.66666604 916.66666776 928.5 916 C927.9225 915.67 927.345 915.34 926.75 915 C893.5 896 893.5 896 891.75003052 895.00001526 C890.58326463 894.33329335 889.41649624 893.66657582 888.24972534 892.99986267 C885.33455622 891.33407716 882.41943053 889.66821573 879.50439453 888.00219727 C874.23656805 884.99159687 868.96842441 881.98155853 863.69866943 878.97433472 C850.70896645 871.56160337 837.73427956 864.12388912 824.78417969 856.64208984 C813.388541 850.06211643 801.96110643 843.53808628 790.53222656 837.01611328 C785.2695208 834.01266824 780.00882814 831.00570035 774.74798584 827.99899292 C771.83207328 826.33251718 768.91603002 824.66627018 766 823 C764.83333271 822.33333443 763.66666604 821.66666776 762.5 821 C761.9225 820.67 761.345 820.34 760.75 820 C727.50000003 801.00000002 727.50000003 801.00000002 725.75003052 800.00001526 C724.58326463 799.33329335 723.41649624 798.66657582 722.24972534 797.99986267 C719.33455622 796.33407716 716.41943053 794.66821573 713.50439453 793.00219727 C708.23656805 789.99159687 702.96842441 786.98155853 697.69866943 783.97433472 C684.70896645 776.56160337 671.73427956 769.12388912 658.78417969 761.64208984 C647.388541 755.06211643 635.96110643 748.53808628 624.53222656 742.01611328 C619.2695208 739.01266824 614.00882814 736.00570035 608.74798584 732.99899292 C605.83207328 731.33251718 602.91603002 729.66627018 600 728 C598.83333271 727.33333443 597.66666604 726.66666776 596.5 726 C595.9225 725.67 595.345 725.34 594.75 725 C561.49999994 705.99999997 561.49999994 705.99999997 559.75006104 705.00003052 C558.58319593 704.33325336 557.41632581 703.66648497 556.24945068 702.99972534 C553.33577909 701.33482094 550.42219422 699.66976514 547.50878906 698.00439453 C542.22315109 694.98319858 536.93686097 691.96317201 531.64738464 688.94869995 C528.68116606 687.25820925 525.7154488 685.56684065 522.75 683.875 C522.1670517 683.54244202 521.58410339 683.20988403 520.98348999 682.86724854 C512.89754031 678.25211953 504.84427229 673.58378188 496.8125 668.875 C487.724328 663.54771058 478.55943841 658.37236462 469.35473633 653.24951172 C461.17949662 648.688689 453.09197544 643.98978374 445.01953125 639.25 C437.8947181 635.07756041 430.71453859 631.01504756 423.5 627 C414.27068598 621.86368611 405.12763027 616.59787465 396.01953125 611.25 C387.87266451 606.47902445 379.6660683 601.8209053 371.37963867 597.29614258 C365.95817031 594.31562974 360.72357594 591.20584187 355.58203125 587.76171875 C345.69009022 580.63424405 345.69009022 580.63424405 334.23046875 578.19140625 C331.1724843 579.66678206 328.65542587 581.36180669 326.01416016 583.48583984 C321.85716805 586.61089015 317.20153109 588.99640271 312.6875 591.5625 C310.5960235 592.79019145 308.50620489 594.02071118 306.41796875 595.25390625 C300.16093421 598.92549947 293.84061204 602.47523288 287.5 606 C279.27777021 610.57528849 271.11417676 615.23571273 263 620 C254.88580901 624.76429563 246.72190812 629.42411851 238.5 634 C229.34276685 639.09830924 220.2630683 644.31308055 211.22167969 649.61376953 C203.5920119 654.08278735 195.93022514 658.49361631 188.25 662.875 C187.66568207 663.20836365 187.08136414 663.54172729 186.4793396 663.88519287 C183.5080802 665.5800349 180.53636728 667.27407984 177.56445312 668.96777344 C172.28906705 671.97470744 167.01765562 674.98859617 161.74597168 678.00201416 C158.83081342 679.6682993 155.91539337 681.33412627 153 683 C151.83333208 683.66666448 150.66666541 684.33333114 149.5 685 C137.83333333 691.66666667 126.16666667 698.33333333 114.5 705 C113.92251007 705.32999496 113.34502014 705.65998993 112.75003052 705.99998474 C111.58326463 706.66670665 110.41649624 707.33342418 109.24972534 708.00013733 C106.33455622 709.66592284 103.41943053 711.33178427 100.50439453 712.99780273 C95.23656805 716.00840313 89.96842441 719.01844147 84.69866943 722.02566528 C72.78423855 728.82477958 60.87811196 735.63753173 49 742.5 C36.53397777 749.70212794 24.03638756 756.84829676 11.53222656 763.98388672 C6.2695208 766.98733176 1.00882814 769.99429965 -4.25201416 773.00100708 C-7.16792672 774.66748282 -10.08396998 776.33372982 -13 778 C-14.16666729 778.66666557 -15.33333396 779.33333224 -16.5 780 C-28.16666667 786.66666667 -39.83333333 793.33333333 -51.5 800 C-52.07748993 800.32999496 -52.65497986 800.65998993 -53.24996948 800.99998474 C-54.41673537 801.66670665 -55.58350376 802.33342418 -56.75027466 803.00013733 C-59.66544378 804.66592284 -62.58056947 806.33178427 -65.49560547 807.99780273 C-70.76343195 811.00840313 -76.03157559 814.01844147 -81.30133057 817.02566528 C-93.21576145 823.82477958 -105.12188804 830.63753173 -117 837.5 C-129.46602223 844.70212794 -141.96361244 851.84829676 -154.46777344 858.98388672 C-159.7304792 861.98733176 -164.99117186 864.99429965 -170.25201416 868.00100708 C-173.16792672 869.66748282 -176.08396998 871.33372982 -179 873 C-180.16666729 873.66666557 -181.33333396 874.33333224 -182.5 875 C-194.16666667 881.66666667 -205.83333333 888.33333333 -217.5 895 C-218.07748993 895.32999496 -218.65497986 895.65998993 -219.24996948 895.99998474 C-220.41673537 896.66670665 -221.58350376 897.33342418 -222.75027466 898.00013733 C-225.66544378 899.66592284 -228.58056947 901.33178427 -231.49560547 902.99780273 C-236.76343195 906.00840313 -242.03157559 909.01844147 -247.30133057 912.02566528 C-259.21576145 918.82477958 -271.12188804 925.63753173 -283 932.5 C-295.46602223 939.70212794 -307.96361244 946.84829676 -320.46777344 953.98388672 C-325.7304792 956.98733176 -330.99117186 959.99429965 -336.25201416 963.00100708 C-339.16792672 964.66748282 -342.08396998 966.33372982 -345 968 C-346.16666729 968.66666557 -347.33333396 969.33333224 -348.5 970 C-350.83333333 971.33333333 -353.16666667 972.66666667 -355.5 974 C-356.36611404 974.49492447 -356.36611404 974.49492447 -357.24972534 974.99984741 C-358.41730253 975.66703147 -359.58488473 976.33420675 -360.75247192 977.00137329 C-363.65524868 978.6600523 -366.55792108 980.31891327 -369.46044922 981.97802734 C-374.87574682 985.07324529 -380.29177203 988.16715729 -385.71075439 991.25592041 C-388.24092248 992.69820701 -390.77062405 994.14131077 -393.30029297 995.58447266 C-395.06302514 996.58965924 -396.82642247 997.59367908 -398.58984375 998.59765625 C-404.45420621 1001.94375155 -410.26130729 1005.34359488 -415.97216797 1008.94677734 C-418 1010 -418 1010 -421 1010 C-421.20590075 961.31029604 -421.36453649 912.62063598 -421.45958797 863.93058246 C-421.47084462 858.18516624 -421.48249349 852.43975088 -421.49438477 846.69433594 C-421.49674556 845.55050434 -421.49910635 844.40667275 -421.50153869 843.22817959 C-421.54072413 824.69580172 -421.61169815 806.16367455 -421.69437516 787.63144551 C-421.77847365 768.62236358 -421.82851517 749.61341314 -421.84679645 730.6041528 C-421.85915927 718.86977466 -421.89823537 707.13610504 -421.9712482 695.40194495 C-422.01874165 687.36054361 -422.03321929 679.31950971 -422.0215124 671.27797823 C-422.0157349 666.63483766 -422.02472517 661.99293694 -422.07284927 657.35001564 C-422.11657526 653.10047027 -422.11891222 648.85300074 -422.08809005 644.60336079 C-422.0842798 643.06486449 -422.09576535 641.52623989 -422.12394864 639.98799704 C-422.32251694 628.48268065 -422.32251694 628.48268065 -419.03365219 624.79551721 C-416.74020481 623.23757452 -414.54444342 622.08734464 -412 621 C-410.45590454 620.09121094 -410.45590454 620.09121094 -408.88061523 619.1640625 C-407.94934814 618.65617187 -407.01808105 618.14828125 -406.05859375 617.625 C-404.99302246 617.03968506 -403.92745117 616.45437012 -402.82958984 615.85131836 C-401.7102002 615.2403833 -400.59081055 614.62944824 -399.4375 614 C-397.02013024 612.67158827 -394.60521879 611.33876965 -392.19140625 610.00390625 C-391.58494263 609.66855362 -390.978479 609.33320099 -390.3536377 608.98768616 C-384.47506333 605.72675135 -378.66923752 602.34581825 -372.875 598.9375 C-364.80337279 594.19207447 -356.68178107 589.55290336 -348.5 585 C-339.34273336 579.90175263 -330.26306683 574.68691858 -321.22167969 569.38623047 C-313.5920119 564.91721265 -305.93022514 560.50638369 -298.25 556.125 C-297.3735231 555.62495453 -297.3735231 555.62495453 -296.4793396 555.11480713 C-293.5080802 553.4199651 -290.53636728 551.72592016 -287.56445312 550.03222656 C-282.28906705 547.02529256 -277.01765562 544.01140383 -271.74597168 540.99798584 C-268.83081342 539.3317007 -265.91539337 537.66587373 -263 536 C-261.83333208 535.33333552 -260.66666541 534.66666886 -259.5 534 C-247.83333333 527.33333333 -236.16666667 520.66666667 -224.5 514 C-223.92251007 513.67000504 -223.34502014 513.34001007 -222.75003052 513.00001526 C-221.58326463 512.33329335 -220.41649624 511.66657582 -219.24972534 510.99986267 C-216.33455622 509.33407716 -213.41943053 507.66821573 -210.50439453 506.00219727 C-205.23656805 502.99159687 -199.96842441 499.98155853 -194.69866943 496.97433472 C-182.78423855 490.17522042 -170.87811196 483.36246827 -159 476.5 C-146.53397777 469.29787206 -134.03638756 462.15170324 -121.53222656 455.01611328 C-116.2695208 452.01266824 -111.00882814 449.00570035 -105.74798584 445.99899292 C-102.83207328 444.33251718 -99.91603002 442.66627018 -97 441 C-95.83333271 440.33333443 -94.66666604 439.66666776 -93.5 439 C-81.83333333 432.33333333 -70.16666667 425.66666667 -58.5 419 C-57.92261581 418.67006546 -57.34523163 418.34013092 -56.75035095 418.00019836 C-55.58251695 417.3328661 -54.41468044 416.66553823 -53.24684143 415.99821472 C-50.34801454 414.34176745 -47.4492395 412.6852296 -44.55053711 411.02856445 C-39.08786635 407.90665293 -33.62479705 404.78544695 -28.16030884 401.66671753 C-25.58173168 400.19499772 -23.00338154 398.72288044 -20.42504883 397.25073242 C-19.1969722 396.54968724 -17.96878461 395.84883641 -16.74047852 395.14819336 C-15.03633932 394.1761123 -13.33261443 393.20330504 -11.62890625 392.23046875 C-10.66025635 391.67770264 -9.69160645 391.12493652 -8.69360352 390.55541992 C-6.86814532 389.50131005 -5.06142204 388.4141976 -3.27319336 387.2980957 C-1 386 -1 386 1 386 C0.67 385.34 0.34 384.68 0 384 C-0.09527103 381.920722 -0.12372583 379.8382934 -0.12304783 377.75683403 C-0.12420167 377.10619085 -0.12535552 376.45554766 -0.12654433 375.78518802 C-0.12921153 373.58388887 -0.12468798 371.38266146 -0.12025452 369.18136597 C-0.1206902 367.59571634 -0.12156505 366.01006678 -0.12284368 364.42441761 C-0.12508926 360.05072285 -0.1210665 355.67705237 -0.11606562 351.3033607 C-0.11176221 346.59305873 -0.11320747 341.88275822 -0.1139679 337.17245483 C-0.1144932 329.0060684 -0.11134572 320.83968994 -0.10573006 312.67330551 C-0.09761594 300.86596654 -0.09499993 289.05863144 -0.09374207 277.25128998 C-0.09155141 258.09639816 -0.08489095 238.9415106 -0.07543945 219.78662109 C-0.06626569 201.17529319 -0.05918468 182.56396643 -0.05493164 163.95263672 C-0.05453756 162.23291544 -0.05453756 162.23291544 -0.05413551 160.47845231 C-0.05283051 154.72711022 -0.05156679 148.97576813 -0.05032361 143.22442603 C-0.03995056 95.48294775 -0.02233187 47.74147408 0 0 Z " fill="#FFFFFF" transform="translate(1255,1932)"/>
<path d="M0 0 C2.79051604 1.3388736 5.50297063 2.756908 8.20898438 4.25976562 C9.28720459 4.85781006 10.3654248 5.45585449 11.47631836 6.07202148 C12.64125751 6.72288645 13.80604857 7.37401653 14.97070312 8.02539062 C15.86681808 8.52475632 15.86681808 8.52475632 16.78103638 9.03421021 C26.09629078 14.22618993 35.3358177 19.53905111 44.53344727 24.93701172 C52.12896509 29.39339729 59.75886444 33.78724089 67.40820312 38.15039062 C67.99270233 38.48384491 68.57720154 38.81729919 69.17941284 39.16085815 C72.1504916 40.85560433 75.12201191 42.54957435 78.09375 44.24316406 C83.36913608 47.25009807 88.6405475 50.26398679 93.91223145 53.27740479 C96.8273897 54.94368992 99.74280975 56.6095169 102.65820312 58.27539062 C103.82487104 58.9420551 104.99153771 59.60872177 106.15820312 60.27539062 C107.02445313 60.77039062 107.02445313 60.77039062 107.90820312 61.27539062 C169.15820315 96.27539064 169.15820315 96.27539064 170.90817261 97.27537537 C172.0749385 97.94209728 173.24170689 98.60881481 174.40847778 99.27552795 C177.32364691 100.94131347 180.23877259 102.6071749 183.15380859 104.27319336 C188.42163507 107.28379376 193.68977871 110.2938321 198.95953369 113.30105591 C211.94923668 120.71378725 224.92392357 128.15150151 237.87402344 135.63330078 C249.26966213 142.21327419 260.6970967 148.73730434 272.12597656 155.25927734 C277.39106911 158.26408453 282.65413572 161.27243681 287.9173584 164.28051758 C289.64503114 165.26786298 291.37280814 166.25502594 293.10058594 167.2421875 C298.59290417 170.38021165 304.08476565 173.519027 309.57525635 176.6602478 C312.18266561 178.15194346 314.79029832 179.64324828 317.39794922 181.13452148 C318.64675939 181.84884349 319.8954588 182.5633592 321.14404297 183.27807617 C322.86984088 184.2659451 324.59604331 185.25310725 326.32226562 186.24023438 C327.79880615 187.08509399 327.79880615 187.08509399 329.30517578 187.94702148 C330.73813772 188.75598039 332.18638943 189.53948378 333.65820312 190.27539062 C333.65820312 190.93539062 333.65820312 191.59539063 333.65820312 192.27539062 C332.96597656 192.65646973 332.27375 193.03754883 331.56054688 193.43017578 C318.142303 200.82656285 304.79147059 208.30750937 291.58203125 216.07275391 C284.49047912 220.23208714 277.34212057 224.27795106 270.15820312 228.27539062 C261.93617723 232.85105463 253.77238882 237.5110981 245.65820312 242.27539062 C237.54401213 247.03968625 229.38011124 251.69950914 221.15820312 256.27539062 C212.00096998 261.37369987 202.92127143 266.58847118 193.87988281 271.88916016 C186.25021503 276.35817797 178.58842827 280.76900694 170.90820312 285.15039062 C170.32388519 285.48375427 169.73956726 285.81711792 169.13754272 286.1605835 C166.16628332 287.85542553 163.19457041 289.54947047 160.22265625 291.24316406 C154.94727017 294.25009807 149.67585875 297.26398679 144.4041748 300.27740479 C141.48901655 301.94368992 138.5735965 303.6095169 135.65820312 305.27539062 C134.49153521 305.9420551 133.32486854 306.60872177 132.15820312 307.27539062 C120.49153646 313.94205729 108.82486979 320.60872396 97.15820312 327.27539062 C96.5807132 327.60538559 96.00322327 327.93538055 95.40823364 328.27537537 C94.24146775 328.94209728 93.07469936 329.60881481 91.90792847 330.27552795 C88.99275934 331.94131347 86.07763366 333.6071749 83.16259766 335.27319336 C77.89477118 338.28379376 72.62662754 341.2938321 67.35687256 344.30105591 C55.44244168 351.1001702 43.53631509 357.91292236 31.65820312 364.77539062 C19.1921809 371.97751856 6.69459068 379.12368738 -5.80957031 386.25927734 C-11.07227608 389.26272238 -16.33296873 392.26969027 -21.59381104 395.27639771 C-24.50972359 396.94287345 -27.42576685 398.60912044 -30.34179688 400.27539062 C-31.50846417 400.9420562 -32.67513083 401.60872286 -33.84179688 402.27539062 C-45.50846354 408.94205729 -57.17513021 415.60872396 -68.84179688 422.27539062 C-69.41927673 422.60538055 -69.99675659 422.93537048 -70.59173584 423.27536011 C-71.75860095 423.94213726 -72.92547107 424.60890565 -74.09234619 425.27566528 C-77.00601779 426.94056968 -79.91960266 428.60562548 -82.83300781 430.27099609 C-88.11864578 433.29219204 -93.40493591 436.31221862 -98.69441223 439.32669067 C-101.66063082 441.01718137 -104.62634807 442.70854998 -107.59179688 444.40039062 C-108.17474518 444.73294861 -108.75769348 445.06550659 -109.35830688 445.40814209 C-117.44425656 450.0232711 -125.49752458 454.69160875 -133.52929688 459.40039062 C-142.61746887 464.72768004 -151.78235847 469.903026 -160.98706055 475.02587891 C-168.15588894 479.02524242 -175.26297718 483.11901943 -182.34179688 487.27539062 C-191.49092976 492.64735856 -200.71582819 497.86615588 -209.98632812 503.02539062 C-217.15533382 507.02503515 -224.2627245 511.11887107 -231.34179688 515.27539062 C-239.45598787 520.03968625 -247.61988876 524.69950914 -255.84179688 529.27539062 C-264.99903002 534.37369987 -274.07872857 539.58847118 -283.12011719 544.88916016 C-290.74978497 549.35817797 -298.41157173 553.76900694 -306.09179688 558.15039062 C-306.96827377 558.6504361 -306.96827377 558.6504361 -307.86245728 559.1605835 C-310.83371668 560.85542553 -313.80542959 562.54947047 -316.77734375 564.24316406 C-322.05272983 567.25009807 -327.32414125 570.26398679 -332.5958252 573.27740479 C-335.51098345 574.94368992 -338.4264035 576.6095169 -341.34179688 578.27539062 C-342.50846479 578.9420551 -343.67513146 579.60872177 -344.84179688 580.27539062 C-347.17513021 581.60872396 -349.50846354 582.94205729 -351.84179688 584.27539062 C-352.70796379 584.77034531 -352.70796379 584.77034531 -353.59162903 585.27529907 C-354.75885018 585.94227968 -355.92607634 586.60925151 -357.0933075 587.2762146 C-360.00153165 588.93800629 -362.9096699 590.59994797 -365.81762695 592.26220703 C-371.16815663 595.32049742 -376.51941621 598.37748259 -381.87373352 601.42913818 C-384.32515863 602.8264031 -386.77616298 604.22440495 -389.2270813 605.62255859 C-390.42050063 606.3031845 -391.61408164 606.98352699 -392.80783081 607.66357422 C-398.4883443 610.90025513 -404.15920424 614.14804274 -409.77148438 617.50195312 C-410.56723877 617.97713379 -411.36299316 618.45231445 -412.18286133 618.94189453 C-413.61223514 619.79992725 -415.03816496 620.66373741 -416.4597168 621.53466797 C-421.01579339 624.27539062 -421.01579339 624.27539062 -424.34179688 624.27539062 C-424.54769763 575.58568666 -424.70633337 526.89602661 -424.80138484 478.20597308 C-424.8126415 472.46055686 -424.82429037 466.7151415 -424.83618164 460.96972656 C-424.83854243 459.82589497 -424.84090323 458.68206337 -424.84333556 457.50357021 C-424.882521 438.97119234 -424.95349502 420.43906517 -425.03617204 401.90683614 C-425.12027052 382.8977542 -425.17031204 363.88880376 -425.18859333 344.87954342 C-425.20095614 333.14516528 -425.24003224 321.41149566 -425.31304508 309.67733558 C-425.36053853 301.63593423 -425.37501617 293.59490034 -425.36330927 285.55336885 C-425.35753178 280.91022829 -425.36652204 276.26832756 -425.41464615 271.62540627 C-425.45837214 267.3758609 -425.46070909 263.12839137 -425.42988693 258.87875141 C-425.42607668 257.34025512 -425.43756222 255.80163052 -425.46574552 254.26338767 C-425.66431382 242.75807127 -425.66431382 242.75807127 -422.37544906 239.07090783 C-420.08200168 237.51296514 -417.8862403 236.36273526 -415.34179688 235.27539062 C-413.79770142 234.36660156 -413.79770142 234.36660156 -412.22241211 233.43945312 C-411.29114502 232.9315625 -410.35987793 232.42367187 -409.40039062 231.90039062 C-408.33481934 231.31507568 -407.26924805 230.72976074 -406.17138672 230.12670898 C-405.05199707 229.51577393 -403.93260742 228.90483887 -402.77929688 228.27539062 C-400.36192711 226.9469789 -397.94701566 225.61416027 -395.53320312 224.27929688 C-394.62350769 223.77626793 -394.62350769 223.77626793 -393.69543457 223.26307678 C-387.81686021 220.00214198 -382.01103439 216.62120887 -376.21679688 213.21289062 C-368.14516967 208.46746509 -360.02357794 203.82829399 -351.84179688 199.27539062 C-342.68453023 194.17714325 -333.6048637 188.96230921 -324.56347656 183.66162109 C-316.93380878 179.19260328 -309.27202202 174.78177431 -301.59179688 170.40039062 C-300.71531998 169.90034515 -300.71531998 169.90034515 -299.82113647 169.39019775 C-296.84987707 167.69535572 -293.87816416 166.00131078 -290.90625 164.30761719 C-285.63086392 161.30068318 -280.3594525 158.28679446 -275.08776855 155.27337646 C-272.1726103 153.60709133 -269.25719025 151.94126435 -266.34179688 150.27539062 C-265.17512896 149.60872615 -264.00846229 148.94205948 -262.84179688 148.27539062 C-251.17513021 141.60872396 -239.50846354 134.94205729 -227.84179688 128.27539062 C-227.26430695 127.94539566 -226.68681702 127.6154007 -226.09182739 127.27540588 C-224.9250615 126.60868397 -223.75829311 125.94196644 -222.59152222 125.2752533 C-219.67635309 123.60946778 -216.76122741 121.94360635 -213.84619141 120.27758789 C-208.57836493 117.26698749 -203.31022129 114.25694915 -198.04046631 111.24972534 C-186.12603543 104.45061105 -174.21990884 97.63785889 -162.34179688 90.77539062 C-149.87577465 83.57326269 -137.37818443 76.42709387 -124.87402344 69.29150391 C-119.61131767 66.28805887 -114.35062502 63.28109098 -109.08978271 60.27438354 C-106.17387016 58.6079078 -103.2578269 56.94166081 -100.34179688 55.27539062 C-99.17512958 54.60872505 -98.00846292 53.94205839 -96.84179688 53.27539062 C-85.17513021 46.60872396 -73.50846354 39.94205729 -61.84179688 33.27539062 C-61.26440262 32.94545105 -60.68700836 32.61551147 -60.09211731 32.27557373 C-15.16601563 6.60351563 -15.16601563 6.60351563 -12.07373047 4.85546875 C-10.41829045 3.89800603 -8.77949004 2.9097327 -7.17626953 1.8671875 C-2.89160384 -0.89473313 -2.89160384 -0.89473313 0 0 Z " fill="#FFFFFF" transform="translate(1258.341796875,2317.724609375)"/>
<path d="M0 0 C0 126.72 0 253.44 0 384 C-0.66 384.33 -1.32 384.66 -2 385 C-4.14111328 384.05053711 -4.14111328 384.05053711 -6.8203125 382.52734375 C-7.81804687 381.96466797 -8.81578125 381.40199219 -9.84375 380.82226562 C-10.9265625 380.20029297 -12.009375 379.57832031 -13.125 378.9375 C-14.24648437 378.30134766 -15.36796875 377.66519531 -16.5234375 377.00976562 C-25.05064385 372.16597007 -33.51767608 367.21804226 -41.97509766 362.25366211 C-49.10125015 358.07920824 -56.28364942 354.01624107 -63.5 350 C-72.65723315 344.90169076 -81.7369317 339.68691945 -90.77832031 334.38623047 C-98.4079881 329.91721265 -106.06977486 325.50638369 -113.75 321.125 C-114.33431793 320.79163635 -114.91863586 320.45827271 -115.5206604 320.11480713 C-118.4919198 318.4199651 -121.46363272 316.72592016 -124.43554688 315.03222656 C-129.71093295 312.02529256 -134.98234438 309.01140383 -140.25402832 305.99798584 C-143.16918658 304.3317007 -146.08460663 302.66587373 -149 301 C-150.16666792 300.33333552 -151.33333459 299.66666886 -152.5 299 C-153.0775 298.67 -153.655 298.34 -154.25 298 C-187.50000008 278.99999996 -187.50000008 278.99999996 -189.24996948 278.00001526 C-190.41673537 277.33329335 -191.58350376 276.66657582 -192.75027466 275.99986267 C-195.66544378 274.33407716 -198.58056947 272.66821573 -201.49560547 271.00219727 C-206.76343195 267.99159687 -212.03157559 264.98155853 -217.30133057 261.97433472 C-230.29103355 254.56160337 -243.26572044 247.12388912 -256.21582031 239.64208984 C-267.00530376 233.41211747 -277.82310146 227.23204458 -288.64428711 221.05738831 C-292.90769284 218.62439468 -297.16910065 216.18792609 -301.4296875 213.75 C-313.59537103 206.78971636 -325.7656215 199.83909357 -338 193 C-334.99561618 190.63265519 -331.90105662 188.75226918 -328.546875 186.91796875 C-327.46519043 186.32298584 -326.38350586 185.72800293 -325.26904297 185.11499023 C-324.69619568 184.80133514 -324.12334839 184.48768005 -323.53314209 184.16452026 C-313.90171725 178.8872643 -304.34193869 173.50577546 -294.875 167.9375 C-286.80335849 163.1921064 -278.68186937 158.55274279 -270.5 154 C-262.2779741 149.424336 -254.1141857 144.76429252 -246 140 C-237.88580901 135.23570437 -229.72190812 130.57588149 -221.5 126 C-212.34276685 120.90169076 -203.2630683 115.68691945 -194.22167969 110.38623047 C-186.5920119 105.91721265 -178.93022514 101.50638369 -171.25 97.125 C-170.66568207 96.79163635 -170.08136414 96.45827271 -169.4793396 96.11480713 C-166.5080802 94.4199651 -163.53636728 92.72592016 -160.56445312 91.03222656 C-155.28906705 88.02529256 -150.01765562 85.01140383 -144.74597168 81.99798584 C-141.83081342 80.3317007 -138.91539337 78.66587373 -136 77 C-134.83333208 76.33333552 -133.66666541 75.66666886 -132.5 75 C-115 65 -115 65 -97.5 55 C-96.92251007 54.67000504 -96.34502014 54.34001007 -95.75003052 54.00001526 C-94.58326463 53.33329335 -93.41649624 52.66657582 -92.24972534 51.99986267 C-89.33455622 50.33407716 -86.41943053 48.66821573 -83.50439453 47.00219727 C-78.23662337 43.99162848 -72.96853149 40.98162801 -67.69883728 37.97442627 C-55.55774638 31.04599473 -43.42345422 24.10602539 -31.3125 17.125 C-30.24177246 16.50802246 -29.17104492 15.89104492 -28.06787109 15.25537109 C-23.25258793 12.47545238 -18.4470212 9.68166188 -13.66796875 6.83984375 C-12.87028076 6.36595215 -12.07259277 5.89206055 -11.25073242 5.40380859 C-9.79657664 4.5372144 -8.34473906 3.66671296 -6.89575195 2.79150391 C-2.2181456 0 -2.2181456 0 0 0 Z " fill="#FFFFFF" transform="translate(1930,1932)"/>
<path d="M0 0 C23.76 0 47.52 0 72 0 C75.375 13.5 75.375 13.5 76.49967957 19.47930908 C76.68728433 20.46861597 76.68728433 20.46861597 76.8786791 21.47790885 C77.28730562 23.63732366 77.6909245 25.79764055 78.09448242 27.95800781 C78.39018197 29.52631805 78.68619628 31.09456896 78.98249817 32.6627655 C79.77886519 36.88240057 80.57087558 41.1028425 81.36205459 45.32345295 C82.19227764 49.74816249 83.02657681 54.17210338 83.86042786 58.59613037 C85.43565354 66.95690494 87.00725823 75.3183558 88.57753497 83.6800611 C90.36676156 93.20668843 92.16006641 102.73254662 93.95369947 112.25834513 C97.64031025 131.83804954 101.32184643 151.41870522 105 171 C105.33 171 105.66 171 106 171 C106.16822958 170.1733915 106.33645916 169.34678301 106.50978661 168.49512577 C110.60705957 148.3631554 114.70522317 128.23136652 118.80437279 108.09977818 C120.78668445 98.36421489 122.76869687 88.62859086 124.75 78.89282227 C126.47730942 70.40513719 128.20518523 61.91756765 129.93373549 53.43013519 C130.84859458 48.93794402 131.76317386 44.4456963 132.67707443 39.95331001 C133.53819847 35.72039889 134.40008277 31.48764326 135.262537 27.25500298 C135.57803959 25.70594795 135.89327026 24.15683751 136.20820045 22.60766602 C136.64028068 20.48243671 137.07336544 18.35741438 137.50668335 16.23243713 C137.86894799 14.45291578 137.86894799 14.45291578 138.23853111 12.6374445 C139.12203555 8.41705098 140.06462209 4.2092006 141 0 C164.1 0 187.2 0 211 0 C211.72924464 3.64622319 212.13961148 6.48745048 212.20113468 10.11913681 C212.22054271 11.13372648 212.23995073 12.14831615 212.25994688 13.19365096 C212.27648878 14.30132268 212.29303068 15.4089944 212.31007385 16.55023193 C212.33134604 17.73238415 212.35261823 18.91453637 212.37453502 20.13251138 C212.43259302 23.41025044 212.4865515 26.68802752 212.53878057 29.9658637 C212.59612968 33.50250719 212.65875558 37.03905771 212.72073364 40.57562256 C212.84131988 47.50349676 212.95706891 54.4314438 213.071248 61.35942623 C213.20446831 69.43002376 213.34272535 77.50053262 213.48125803 85.57104042 C213.72836503 99.9753598 213.97127894 114.37974678 214.21166992 128.78417969 C214.44481932 142.75427539 214.68030472 156.72432876 214.91870117 170.69433594 C214.93337343 171.55416241 214.94804568 172.41398888 214.96316255 173.2998707 C215.02214952 176.75625117 215.0811451 180.21263149 215.14015398 183.66901158 C215.39495053 198.59636721 215.64799244 213.52375267 215.90063986 228.45114481 C215.94150128 230.86498876 215.98239231 233.2788322 216.0232861 235.69267559 C216.17866055 244.8674595 216.33311278 254.04225824 216.48628616 263.21707916 C216.53271546 265.99658271 216.57948835 268.77608013 216.62658119 271.55557251 C216.69074208 275.35098124 216.75395394 279.14640461 216.81690979 282.9418335 C216.83568241 284.04058233 216.85445503 285.13933116 216.87379652 286.27137542 C216.92148371 289.18087187 216.96217911 292.09036084 217 295 C217.01527862 295.8939436 217.03055725 296.7878872 217.04629886 297.70892 C217.0696525 299.80587342 217.04070392 301.90331161 217 304 C216 305 216 305 214.09544373 305.12025452 C212.84634972 305.1169236 212.84634972 305.1169236 211.57202148 305.11352539 C210.63112167 305.11344986 209.69022186 305.11337433 208.72080994 305.11329651 C207.69790359 305.10813522 206.67499725 305.10297394 205.62109375 305.09765625 C204.058395 305.09553383 204.058395 305.09553383 202.46412659 305.09336853 C199.12188906 305.0877508 195.77971743 305.0751953 192.4375 305.0625 C190.17773534 305.05748728 187.91796963 305.05292398 185.65820312 305.04882812 C180.10544609 305.03777561 174.55272775 305.02102024 169 305 C167.52330632 302.04661264 167.78437411 299.34216817 167.69665527 296.04470825 C167.67608865 295.32051032 167.65552203 294.59631239 167.63433218 293.85016906 C167.56619479 291.41079249 167.50481628 288.97129164 167.44335938 286.53173828 C167.39598826 284.78737782 167.34819272 283.04302884 167.30000305 281.2986908 C167.19689406 277.53427898 167.09675072 273.76980382 166.99885559 270.00525284 C166.84379103 264.04518461 166.68185833 258.08531522 166.5189209 252.12545776 C166.20300249 240.53521762 165.89409634 228.94479565 165.58592987 217.35434723 C165.19433271 202.63765809 164.79965128 187.92105445 164.39858294 173.20462024 C164.23758958 167.28878418 164.08004107 161.3728696 163.92523956 155.45686841 C163.82785925 151.76004259 163.72769065 148.06329591 163.62682152 144.3665638 C163.58089651 142.66232356 163.53611844 140.95805194 163.49262428 139.25374794 C163.25946585 130.14133347 162.90366217 121.07628042 162 112 C161.83084863 112.97036823 161.66169725 113.94073647 161.48742008 114.9405098 C157.37459544 138.53409538 153.26009023 162.12738741 149.14381504 185.72037125 C147.15326863 197.12968586 145.16327164 208.53909579 143.17456055 219.94873047 C141.44152694 229.89148393 139.70747011 239.83405829 137.97217602 249.77641749 C137.05309546 255.0424974 136.13453319 260.30866654 135.21719551 265.57505035 C134.3541785 270.52948673 133.48979606 275.48368291 132.62435532 280.43769646 C132.30658735 282.25811636 131.98932294 284.07862425 131.67259407 285.89922523 C131.24076583 288.38099159 130.8071426 290.86243778 130.37306213 293.34381104 C130.18482946 294.42941783 130.18482946 294.42941783 129.9927941 295.53695607 C129.43180903 298.73337302 128.78789788 301.84840848 128 305 C113.81 305 99.62 305 85 305 C81.02548186 285.44516544 77.3401541 265.84882546 73.73588133 246.22332597 C72.94750804 241.93355192 72.15659237 237.6442467 71.36587524 233.35490417 C69.19691539 221.58668864 67.03161664 209.81780016 64.86660004 198.04885864 C62.87300511 187.21181976 60.87858887 176.37493395 58.88086951 165.53865451 C57.94577136 160.46575105 57.01259227 155.39249976 56.08095908 150.31895888 C55.49975651 147.1561353 54.91684609 143.99362814 54.333498 140.83119965 C54.06635234 139.38105168 53.79988904 137.93077779 53.53421211 136.48036003 C51.84895705 127.2825831 50.01065803 118.1324323 48 109 C47.98030686 109.91899865 47.96061373 110.8379973 47.94032383 111.7848444 C47.45982163 134.1970561 46.97557221 156.60918414 46.48720646 179.02122593 C46.25112122 189.85973384 46.01628137 200.698266 45.78442383 211.53686523 C45.58221777 220.98920195 45.37762358 230.44148353 45.17022032 239.89370769 C45.06059249 244.89363235 44.95212077 249.89357578 44.84651375 254.89358711 C44.74684405 259.61069983 44.64395393 264.32773189 44.53871346 269.04472351 C44.50086863 270.76544631 44.4641476 272.48619431 44.42870712 274.20696831 C44.37966206 276.57963385 44.32634431 278.95217041 44.27210999 281.32472229 C44.25945903 281.98529131 44.24680808 282.64586033 44.23377377 283.32644659 C44.05886328 290.57960999 43.48420383 297.73694252 43 305 C27.16 305 11.32 305 -5 305 C-5.35873017 245.37621772 -4.34763324 185.78521956 -3.27501333 126.17246675 C-3.10664135 116.7883971 -2.94393131 107.40424296 -2.78442383 98.02001953 C-2.5620561 84.93794486 -2.33492893 71.85596002 -2.10360527 58.77404022 C-2.01617978 53.82515994 -1.93059556 48.87625295 -1.84651375 43.92731476 C-1.74824484 38.15786866 -1.6453268 32.38852421 -1.53871346 26.61922646 C-1.50039212 24.50478051 -1.46369323 22.39030447 -1.42870712 20.2758007 C-1.38088078 17.40131718 -1.32726503 14.52699977 -1.27210999 11.65264893 C-1.25945903 10.81100889 -1.24680808 9.96936886 -1.23377377 9.10222459 C-1.16580427 5.82914769 -1.04193961 3.12581882 0 0 Z " fill="#FFFFFF" transform="translate(3533,2478)"/>
<path d="M0 0 C18.15 0 36.3 0 55 0 C57.61435012 22.09609991 59.97010888 44.20998149 62.19921875 66.34765625 C62.34143448 67.75873261 62.48365786 69.1698082 62.62588882 70.58088303 C63.87681835 82.99542189 65.12219712 95.4105174 66.36417466 107.82595485 C67.09691977 115.15062106 67.8318899 122.47505615 68.57116443 129.79906648 C68.9873085 133.92362193 69.39987744 138.04851407 69.80971754 142.17370045 C70.12220534 145.30890639 70.43979087 148.44359654 70.7565918 151.57836914 C70.86827194 152.71308655 70.97995209 153.84780396 71.09501648 155.01690674 C71.25248352 156.56067741 71.25248352 156.56067741 71.41313171 158.13563538 C71.50288112 159.03224916 71.59263052 159.92886293 71.6850996 160.85264683 C71.89230726 163.0452021 71.89230726 163.0452021 73 165 C73.10730659 164.16786075 73.21461317 163.33572149 73.32517147 162.4783659 C75.93412831 142.24810038 78.54639603 122.01826481 81.16236782 101.78890514 C82.42734158 92.00620858 83.69118659 82.22336864 84.95239258 72.44018555 C86.05142145 63.91503384 87.15254964 55.3901564 88.25621945 46.86560422 C88.84074595 42.35024399 89.42420684 37.83475173 90.00515556 33.31892967 C90.55166568 29.07106713 91.10097575 24.82357617 91.65246201 20.57635689 C91.85466756 19.01518538 92.05583816 17.45387944 92.25591087 15.89243317 C92.52867471 13.76488935 92.80511684 11.63785521 93.08250427 9.51091003 C93.2364437 8.31903171 93.39038313 7.12715338 93.54898739 5.89915752 C94 3 94 3 95 0 C109.19 0 123.38 0 138 0 C139.19946628 5.39759826 140.29389349 10.44807755 141.03102112 15.87057495 C141.20902252 17.16597702 141.38702393 18.46137909 141.57041931 19.79603577 C141.75998441 21.20369592 141.94948106 22.61136529 142.13891602 24.01904297 C142.34414973 25.52291837 142.54972555 27.02674711 142.75561523 28.53053284 C143.19592321 31.75168018 143.63388922 34.97313392 144.07000923 38.19485092 C144.75954407 43.28809282 145.45468834 48.38055962 146.15061951 53.47293091 C147.50029392 63.35457716 148.8444297 73.23697276 150.18786621 83.11946869 C151.90108879 95.72067711 153.61644452 108.32159243 155.33756012 120.92172539 C156.02910998 125.98593177 156.71771375 131.05052748 157.40403569 136.1154449 C157.83058667 139.25917343 158.2595007 142.40257625 158.68904877 145.54589653 C158.88799827 147.00548184 159.08594539 148.46520418 159.28282738 149.92506981 C159.55121777 151.91418217 159.82348456 153.90277036 160.09596252 155.8913269 C160.24730432 157.00514677 160.39864611 158.11896664 160.55457401 159.26653862 C160.93879949 162.08228627 160.93879949 162.08228627 162 165 C162.08669166 164.16786075 162.17338331 163.33572149 162.26270199 162.4783659 C164.37050747 142.24813951 166.4820464 122.01830586 168.59776211 101.78890514 C169.62080752 92.00618971 170.64258015 82.22334443 171.66137695 72.44018555 C172.54916823 63.91505922 173.43932676 55.39018401 174.33235127 46.86560422 C174.80529257 42.35022579 175.27703232 37.83472899 175.74593925 33.31892967 C176.18705923 29.07109581 176.63133657 24.82360419 177.07806778 20.57635689 C177.24170673 19.01517333 177.4041786 17.45386694 177.56541252 15.89243317 C177.78527434 13.76491778 178.00928423 11.63787922 178.23435974 9.51091003 C178.35880179 8.31903171 178.48324385 7.12715338 178.61145687 5.89915752 C179 3 179 3 180 0 C197.82 0 215.64 0 234 0 C234 10.12503463 234 10.12503463 233.47180271 14.53438377 C233.29507459 16.0424143 233.29507459 16.0424143 233.11477619 17.58091009 C232.98316607 18.65767747 232.85155595 19.73444485 232.71595764 20.84384155 C232.57782243 22.00914355 232.43968721 23.17444555 232.29736608 24.37505972 C231.91548009 27.58745598 231.52887142 30.79924185 231.1401974 34.01082253 C230.72120266 37.48268859 230.30836161 40.95528713 229.89472961 44.42779541 C229.08467839 51.22001789 228.26896396 58.01154865 227.4512809 64.80285613 C226.49927016 72.71147738 225.55274568 80.62075231 224.60640209 88.53005333 C222.91819952 102.63791662 221.22480064 116.74515136 219.52856445 130.85205078 C217.88219308 144.54426766 216.23984315 158.23695926 214.60180664 171.93017578 C212.81744345 186.84655397 211.0311452 201.7626977 209.24120897 216.67840827 C209.14662841 217.46655718 209.05204785 218.2547061 208.95460121 219.06673831 C208.76464004 220.64969631 208.57467458 222.2326538 208.38470476 223.81561076 C207.72291293 229.3310369 207.06243138 234.84661906 206.40239143 240.3622551 C205.5987174 247.07758919 204.79270637 253.79263806 203.98372848 260.50733535 C203.57089742 263.93433382 203.15907578 267.36144555 202.74996948 270.78889084 C202.3065724 274.49897207 201.85931692 278.20856771 201.411026 281.9180603 C201.2816466 283.00821202 201.1522672 284.09836373 201.01896721 285.22155035 C200.89854071 286.21125754 200.77811422 287.20096474 200.65403843 288.22066307 C200.49968212 289.50572323 200.49968212 289.50572323 200.34220749 290.81674421 C200 293 200 293 199 296 C180.19 296 161.38 296 142 296 C137.40471811 267.27948816 137.40471811 267.27948816 135.61816406 254.48413086 C135.41088168 253.01245329 135.20339024 251.54080515 134.99571228 250.06918335 C134.4463563 246.17231938 133.89982726 242.27506422 133.35391331 238.37771678 C132.77776672 234.26829727 132.19887095 230.15926495 131.62030029 226.05018616 C130.53127486 218.31289448 129.44462588 210.57527112 128.35888934 202.83751732 C127.12008363 194.00975339 125.87853919 185.18237528 124.63679552 176.35502422 C122.08820798 158.23710226 119.54295949 140.1187127 117 122 C113.38823917 146.62853152 109.99482945 171.28418516 106.73046875 195.9609375 C106.63838591 196.65674581 106.54630307 197.35255411 106.45142984 198.06944752 C104.92833756 209.57926973 103.41095502 221.08984346 101.89425659 232.60050964 C100.73926488 241.36578347 99.58332818 250.13092973 98.42362672 258.89558184 C97.97123348 262.3154518 97.51980872 265.73544373 97.07066917 269.15574265 C96.57543711 272.92490147 96.07744691 276.6936864 95.57885742 280.46240234 C95.43291641 281.57893188 95.2869754 282.69546143 95.13661194 283.8458252 C95.00086761 284.86763885 94.86512329 285.88945251 94.7252655 286.94223022 C94.60861636 287.82790869 94.49196722 288.71358715 94.37178326 289.62610435 C94 292 94 292 93 296 C73.86 296 54.72 296 35 296 C31.10240006 265.04818444 31.10240006 265.04818444 29.66015625 253.46044922 C29.51124782 252.26405119 29.51124782 252.26405119 29.35933113 251.0434835 C24.75628986 214.03495693 20.27344555 177.01146705 15.78262329 139.98919106 C14.06606054 125.83822924 12.34575931 111.68773294 10.62050915 97.53782755 C9.38942178 87.43842156 8.16243316 77.33852276 6.93852711 67.238244 C6.21358611 61.25653148 5.48689696 55.27504414 4.75576782 49.29408455 C4.07465144 43.72152273 3.39861532 38.14836807 2.72649193 32.57471466 C2.48003475 30.53832695 2.23174811 28.50215967 1.98147011 26.46623802 C1.63972187 23.68392564 1.30465219 20.90088501 0.97119141 18.11756897 C0.87159276 17.31975874 0.77199411 16.5219485 0.66937733 15.6999622 C0.03918778 10.35930296 0 5.45684192 0 0 Z " fill="#FFFFFF" transform="translate(2502,2482)"/>
<path d="M0 0 C1.1910862 0.00067978 1.1910862 0.00067978 2.40623474 0.00137329 C3.23911011 -0.00198532 4.07198547 -0.00534393 4.93009949 -0.00880432 C7.70837368 -0.01836573 10.48658765 -0.02026173 13.26487732 -0.02133179 C15.20614649 -0.02454693 17.14741542 -0.02791119 19.08868408 -0.03141785 C23.18037983 -0.03742626 27.27205443 -0.03925661 31.36375427 -0.03866577 C36.54401196 -0.03856545 41.72412853 -0.05207337 46.90435314 -0.06943798 C50.92935777 -0.08071517 54.95433035 -0.08258004 58.97934914 -0.08205605 C60.8842294 -0.08321823 62.789111 -0.08753783 64.69397545 -0.09538841 C95.69722633 -0.21093432 129.09667318 1.16810447 153.09690857 23.20913696 C174.99004058 46.10796055 173.95054232 80.59028152 173.87488508 110.06599426 C173.86715352 114.03591469 173.87437071 118.00581701 173.87904358 121.97573853 C173.88446267 128.63560792 173.87741183 135.29537669 173.86302185 141.95523071 C173.84670282 149.59486586 173.85199408 157.23426058 173.86850107 164.87388992 C173.88222691 171.49796188 173.88398205 178.12196254 173.87618506 184.74604416 C173.8715688 188.67392653 173.87071259 192.60169689 173.88079453 196.52957153 C173.9475157 226.68678766 174.01444865 260.57393779 151.31565857 283.45523071 C128.65799464 304.89909121 94.40852372 305.49991577 65.05393982 305.34194946 C62.97359352 305.33820729 60.89324544 305.33536603 58.81289673 305.33337402 C53.40603037 305.32583221 47.99927593 305.30626804 42.592453 305.28396606 C37.04772962 305.26330085 31.5029877 305.25432865 25.95823669 305.24429321 C15.12941218 305.22301069 4.30066977 305.1889929 -6.52809143 305.14663696 C-6.55095633 266.43585681 -6.5685889 227.72507766 -6.57915676 189.01429212 C-6.58040754 184.44911344 -6.58170185 179.88393477 -6.58302307 175.3187561 C-6.58328538 174.40987152 -6.58354769 173.50098694 -6.58381795 172.56456041 C-6.58817496 157.82802012 -6.59606268 143.09148371 -6.60524423 128.35494573 C-6.61457991 113.24554534 -6.62014686 98.13614699 -6.62217993 83.02674383 C-6.62355533 73.69567091 -6.62790686 64.36460895 -6.6360079 55.03353941 C-6.64127431 48.64386564 -6.64289597 42.25419759 -6.64159281 35.86452181 C-6.64094926 32.17232956 -6.64196879 28.48015655 -6.64729691 24.78796768 C-6.6530179 20.79460689 -6.65109259 16.80127157 -6.64834595 12.8079071 C-6.65125879 11.62797166 -6.65417163 10.44803622 -6.65717274 9.23234516 C-6.65418617 7.64093021 -6.65418617 7.64093021 -6.65113926 6.01736546 C-6.65151898 5.09426533 -6.6518987 4.17116521 -6.65228993 3.22009236 C-6.39772648 -1.0297654 -3.60659677 0.02141036 0 0 Z M61.47190857 47.14663696 C61.47190857 116.77663696 61.47190857 186.40663696 61.47190857 258.14663696 C81.39563098 259.32759045 81.39563098 259.32759045 98.10472107 250.82241821 C109.47806691 236.88194574 104.6211823 208.7898608 104.60623407 191.91723204 C104.60366944 188.10817109 104.60605918 184.29911233 104.60762024 180.49005127 C104.60942967 174.10051026 104.60706757 167.71098089 104.60227966 161.32144165 C104.59683475 153.97097511 104.59860635 146.62053631 104.60410607 139.27007043 C104.60866676 132.91628833 104.6092735 126.5625145 104.6066674 120.20873129 C104.60512141 116.43249853 104.60486427 112.65627874 104.60820389 108.88004684 C104.61112608 105.32910192 104.60902844 101.77819224 104.60330963 98.22725105 C104.60139098 96.32880322 104.60429824 94.43035234 104.60743713 92.53190613 C105.26133208 72.66533615 105.26133208 72.66533615 98.15940857 54.70913696 C93.25485017 50.03269756 88.48848756 48.725473 81.84690857 47.95913696 C80.55526794 47.80058228 79.26362732 47.64202759 77.93284607 47.47866821 C72.4598898 47.07131157 66.96000385 47.14663696 61.47190857 47.14663696 Z " fill="#FFFFFF" transform="translate(3205.528091430664,2090.8533630371094)"/>
<path d="M0 0 C21.45 0 42.9 0 65 0 C65 39.6 65 79.2 65 120 C80.18 120 95.36 120 111 120 C111 80.4 111 40.8 111 0 C132.78 0 154.56 0 177 0 C177 97.68 177 195.36 177 296 C155.22 296 133.44 296 111 296 C111 253.43 111 210.86 111 167 C95.82 167 80.64 167 65 167 C65 209.57 65 252.14 65 296 C43.55 296 22.1 296 0 296 C0 198.32 0 100.64 0 0 Z " fill="#FFFFFF" transform="translate(3314,2482)"/>
<path d="M0 0 C15.84 0 31.68 0 48 0 C69.9050445 50.6271746 69.9050445 50.6271746 77.85375977 69.71313477 C83.53771371 83.33973177 89.33581767 96.91787332 95.125 110.5 C95.64125946 111.71136627 96.15751892 112.92273254 96.68942261 114.17080688 C100.7864638 123.78332513 104.88384863 133.39564681 109 143 C109.33 95.81 109.66 48.62 110 0 C128.15 0 146.3 0 165 0 C165 100.65 165 201.3 165 305 C150.15 305 135.3 305 120 305 C114.37551409 292.626131 114.37551409 292.626131 112.71435547 288.37231445 C112.33487259 287.40506943 111.95538971 286.4378244 111.56440735 285.44126892 C111.1693248 284.42553299 110.77424225 283.40979706 110.3671875 282.36328125 C109.93758224 281.2662941 109.50797699 280.16930695 109.06535339 279.03907776 C108.14458816 276.68709764 107.22514372 274.33460008 106.30691528 271.98162842 C104.84979848 268.24792382 103.38935751 264.51553768 101.92749023 260.78369141 C101.55767485 259.83961803 101.55767485 259.83961803 101.18038845 258.87647247 C100.68001853 257.59916736 100.17963034 256.3218694 99.67922401 255.04457855 C98.92376297 253.11594123 98.16866261 251.18716299 97.41362 249.25836182 C92.66036204 237.11850849 87.86727317 224.99454636 83.0625 212.875 C81.65745138 209.33076907 80.25245805 205.78651627 78.84765625 202.2421875 C78.49886414 201.36227646 78.15007202 200.48236542 77.79071045 199.57579041 C71.51017336 183.72391018 65.25816259 167.86072321 59 152 C58.99576806 152.78244552 58.99153612 153.56489103 58.98717594 154.37104702 C58.88401395 173.38180119 58.77539819 192.39251698 58.66066074 211.40320492 C58.60530778 220.59650825 58.55182245 229.78981546 58.50268555 238.9831543 C58.45986903 246.99309473 58.41359755 255.00300635 58.36312145 263.01290232 C58.33650003 267.25675562 58.31164653 271.50060312 58.29092598 275.74448967 C58.27139137 279.73431871 58.24725733 283.72409279 58.21950912 287.71387291 C58.2101218 289.18248246 58.20245261 290.65110409 58.19658089 292.1197319 C58.18834826 294.1162578 58.17348264 296.11275315 58.15821838 298.10923767 C58.15176583 299.22921615 58.14531328 300.34919462 58.1386652 301.50311184 C58 304 58 304 57 305 C38.19 305 19.38 305 0 305 C0 204.35 0 103.7 0 0 Z " fill="#FFFFFF" transform="translate(4001,2478)"/>
<path d="M0 0 C15.51 0 31.02 0 47 0 C50.21408381 6.42816762 53.2767197 12.75576852 56.0546875 19.359375 C56.42896378 20.24151672 56.80324005 21.12365845 57.18885803 22.03253174 C58.42050485 24.93712179 59.64772757 27.84355928 60.875 30.75 C61.75038329 32.81655417 62.62612372 34.8829571 63.50219727 36.94921875 C64.88707374 40.21570008 66.27167791 43.48229442 67.65510559 46.74938965 C71.08266494 54.84310856 74.52399655 62.93087604 77.97265625 71.015625 C78.47099976 72.18414001 78.96934326 73.35265503 79.48278809 74.55657959 C81.43148543 79.12560346 83.38030912 83.69457299 85.33026123 88.26306152 C90.87921804 101.26588914 96.38722528 114.28494105 101.84985352 127.32421875 C102.45061818 128.75762048 103.05140998 130.19101083 103.65222931 131.62438965 C105.10179753 135.08279602 106.55100352 138.54135403 108 142 C108.00423194 141.27424554 108.00846388 140.54849108 108.01282406 139.80074406 C108.1159885 122.16694511 108.22460463 104.53318826 108.33933926 86.89946079 C108.39469093 78.37203423 108.44817606 69.84460349 108.49731445 61.31713867 C108.54013254 53.88731118 108.58640443 46.45751475 108.63687855 39.02773517 C108.6634987 35.09128504 108.68835216 31.15484115 108.70907402 27.21835518 C108.7286103 23.51743655 108.75274484 19.81657712 108.78049088 16.11571121 C108.79437157 14.10131571 108.8033009 12.08688802 108.81211853 10.07246399 C108.82190735 8.8846936 108.83169617 7.69692322 108.84178162 6.47315979 C108.84823417 5.4342991 108.85468672 4.3954384 108.8613348 3.32509708 C109 1 109 1 110 0 C128.15 0 146.3 0 165 0 C165 100.65 165 201.3 165 305 C149.82 305 134.64 305 119 305 C117.67871094 301.63039063 116.35742188 298.26078125 114.99609375 294.7890625 C105.0794634 269.51000602 95.13466943 244.24237297 85.125 219 C84.68219696 217.88280579 84.23939392 216.76561157 83.78317261 215.61456299 C75.23708764 194.05693205 66.61253595 172.53133987 58 151 C57.67 201.82 57.34 252.64 57 305 C38.19 305 19.38 305 0 305 C0 204.35 0 103.7 0 0 Z " fill="#FFFFFF" transform="translate(2951,2091)"/>
<path d="M0 0 C25.08 0 50.16 0 76 0 C77.51322132 3.78305331 78.44307924 6.66921523 79.16650391 10.58155823 C79.48019786 12.25683971 79.48019786 12.25683971 79.80022907 13.96596527 C80.0234191 15.18706245 80.24660913 16.40815964 80.4765625 17.66625977 C80.7204503 18.97962313 80.96479571 20.29290159 81.20955944 21.60610199 C81.87926973 25.20646068 82.54253529 28.80798105 83.20477271 32.40972066 C83.91789099 36.28170079 84.63706731 40.15255578 85.35554504 44.02354431 C86.75626577 51.57540148 88.15162831 59.12823899 89.5452022 66.68141788 C91.32492037 76.32616629 93.11106182 85.96972322 94.8972168 95.61328125 C95.55863061 99.18471325 96.2199847 102.75615631 96.88130188 106.3276062 C97.04605127 107.21732396 97.21080066 108.10704172 97.38054246 109.02372062 C98.56031076 115.39562259 99.7389492 121.76773298 100.91716003 128.1399231 C105.18469782 151.21827093 109.47048322 174.29314828 113.77347183 197.36491203 C114.69615196 202.3123189 115.61817321 207.25984839 116.54000854 212.20741272 C116.68923802 213.00831158 116.8384675 213.80921044 116.99221909 214.63437897 C117.58667713 217.82479796 118.1811227 221.01521928 118.77552819 224.20564806 C120.36254738 232.72369388 121.95061705 241.24154079 123.54174805 249.75881958 C124.76565968 256.31046736 125.9871319 262.86256413 127.20544833 269.41525477 C127.82433317 272.74343467 128.44482818 276.07129328 129.06772804 279.39872551 C129.73960138 282.98852158 130.4071037 286.57910316 131.07348633 290.16992188 C131.27111069 291.21991143 131.46873505 292.26990099 131.67234802 293.35170841 C131.84914093 294.30939342 132.02593384 295.26707842 132.20808411 296.25378418 C132.36215131 297.07988945 132.51621851 297.90599472 132.67495441 298.75713348 C133 301 133 301 133 305 C112.54 305 92.08 305 71 305 C69.25293794 296.2646897 67.52824006 287.62046529 66.17578125 278.83203125 C66.02465378 277.86392014 65.87352631 276.89580902 65.71781921 275.89836121 C65.40460879 273.88650793 65.09298882 271.87440641 64.78295898 269.86206055 C64.30733576 266.7790249 63.82487018 263.69711054 63.34179688 260.61523438 C63.03605461 258.64589597 62.73070147 256.6764971 62.42578125 254.70703125 C62.28207596 253.79041214 62.13837067 252.87379303 61.99031067 251.92939758 C61.85984848 251.07718124 61.72938629 250.2249649 61.5949707 249.34692383 C61.47966507 248.60162918 61.36435944 247.85633453 61.24555969 247.0884552 C61 245 61 245 61 241 C46.15 241 31.3 241 16 241 C15.67 244.63 15.34 248.26 15 252 C14.74906843 253.89812887 14.47806975 255.79398537 14.16796875 257.68334961 C14.01110596 258.65062485 13.85424316 259.61790009 13.69262695 260.61448669 C13.52593506 261.61697952 13.35924316 262.61947235 13.1875 263.65234375 C12.92682739 265.24617638 12.92682739 265.24617638 12.66088867 266.87220764 C12.29627014 269.09682889 11.92979327 271.3211463 11.56152344 273.54516602 C10.99761018 276.95193765 10.43974675 280.3596593 9.8828125 283.76757812 C9.52639239 285.93755764 9.16963365 288.10748156 8.8125 290.27734375 C8.64580811 291.2940062 8.47911621 292.31066864 8.30737305 293.35813904 C8.07207886 294.77595421 8.07207886 294.77595421 7.83203125 296.22241211 C7.69514893 297.05083115 7.5582666 297.87925018 7.41723633 298.73277283 C7.0295874 300.83922456 6.51946865 302.92212539 6 305 C-15.12 305 -36.24 305 -58 305 C-55.75001827 289.2501279 -55.75001827 289.2501279 -54.73738098 283.91131592 C-54.39193001 282.07741601 -54.39193001 282.07741601 -54.03950024 280.20646763 C-53.79290315 278.91469073 -53.54630606 277.62291384 -53.29223633 276.29199219 C-53.02313092 274.86984496 -52.7543046 273.4476449 -52.48573017 272.0253973 C-51.75755845 268.17354786 -51.02555161 264.32243625 -50.29287767 260.47144103 C-49.5069252 256.33645469 -48.72473035 252.20075747 -47.94210815 248.06513977 C-46.42669453 240.06020905 -44.90812768 232.05587991 -43.38839459 224.05176824 C-41.45755628 213.88187208 -39.53001829 203.71135099 -37.6027832 193.54077148 C-37.42797735 192.61827461 -37.2531715 191.69577773 -37.0730685 190.7453264 C-36.36499899 187.00861275 -35.65693595 183.27189787 -34.94892377 179.53517336 C-34.05978823 174.84260381 -33.17048659 170.15006586 -32.28083611 165.45759392 C-27.74144276 141.51441618 -23.21981438 117.56802582 -18.73062325 93.61538315 C-17.91159004 89.24543877 -17.09174015 84.8756479 -16.27171326 80.50588989 C-15.74647565 77.70672886 -15.22125979 74.90756374 -14.69604492 72.10839844 C-14.56895452 71.43110333 -14.44186413 70.75380823 -14.3109225 70.05598903 C-12.9416904 62.75847072 -11.57437117 55.46060374 -10.21231079 48.16174316 C-9.06856896 42.03333743 -7.92032037 35.90579396 -6.7685585 29.77889061 C-6.35296728 27.5631129 -5.93917655 25.34699659 -5.52733994 23.13051796 C-4.97169273 20.14088571 -4.40985337 17.15248262 -3.84643555 14.16430664 C-3.68719007 13.29876537 -3.52794458 12.43322411 -3.36387348 11.54145432 C-3.21247001 10.74543934 -3.06106653 9.94942436 -2.90507507 9.12928772 C-2.71382065 8.10620561 -2.71382065 8.10620561 -2.51870251 7.06245518 C-2 5 -2 5 0 0 Z M38 84 C33.85349668 112.49885451 29.88323923 141.01837709 26.0625 169.5625 C25.91005766 170.70134329 25.91005766 170.70134329 25.75453568 171.86319351 C24.49949001 181.24166048 23.24924385 190.62075649 22 200 C32.56 200 43.12 200 54 200 C53.3801915 191.94248952 52.70996479 184.04889941 51.60131836 176.0690918 C51.46462234 175.06257568 51.32792633 174.05605957 51.18708801 173.01904297 C50.74158152 169.74526893 50.29077007 166.47225026 49.83984375 163.19921875 C49.52705895 160.9085585 49.21461019 158.61785235 48.90248108 156.32710266 C48.08548697 150.33776518 47.2639693 144.34905686 46.44146729 138.36047363 C45.600792 132.233532 44.76445263 126.10599867 43.92773438 119.97851562 C42.28936894 107.98509824 40.64621795 95.99234188 39 84 C38.67 84 38.34 84 38 84 Z " fill="#FFFFFF" transform="translate(2749,2091)"/>
<path d="M0 0 C25.74 0 51.48 0 78 0 C79.78019531 9.57902344 81.56039062 19.15804687 83.39453125 29.02734375 C84.57785615 35.3938848 85.76119781 41.76042274 86.94458008 48.12695312 C88.88380968 58.55991858 90.82288428 68.99291278 92.76132202 79.42602539 C94.75718784 90.16819846 96.7533817 100.91031052 98.75 111.65234375 C98.91882887 112.56067192 99.08765774 113.46900008 99.26160264 114.40485334 C103.99117855 139.84984813 108.73173018 165.29276903 113.48561317 190.73323375 C114.60271879 196.71153957 115.71924753 202.68995287 116.83537292 208.66844177 C116.99005222 209.49695174 117.14473152 210.32546171 117.30409807 211.17907804 C117.92092706 214.48303683 118.53774635 217.78699743 119.15449941 221.0909704 C120.95309175 230.72591627 122.75394177 240.36043388 124.55842578 249.99427813 C125.68667469 256.0187759 126.81239055 262.04374342 127.93611443 268.06908685 C128.58305264 271.53738678 129.23121543 275.00544663 129.88258362 278.47291756 C130.58613422 282.21820966 131.28418339 285.9645147 131.98168945 289.7109375 C132.18866361 290.8076776 132.39563776 291.90441771 132.60888386 293.03439236 C132.79409186 294.03415128 132.97929987 295.0339102 133.17012024 296.06396484 C133.33156178 296.92694183 133.49300333 297.78991882 133.65933704 298.67904663 C134 301 134 301 134 305 C113.54 305 93.08 305 72 305 C70.80411772 300.21647088 69.7127415 295.76580371 68.94677734 290.95117188 C68.76674164 289.83061401 68.58670593 288.71005615 68.4012146 287.55554199 C68.21467316 286.37190063 68.02813171 285.18825928 67.8359375 283.96875 C67.54053574 282.1212616 67.54053574 282.1212616 67.23916626 280.2364502 C66.72046757 276.98842988 66.20478939 273.73994957 65.69061279 270.49121094 C65.16349471 267.16560653 64.63238952 263.84063906 64.1015625 260.515625 C63.06343127 254.01108399 62.03188508 247.50554709 61 241 C39.22 240.505 39.22 240.505 17 240 C16.34 245.61 15.68 251.22 15 257 C14.39585255 260.97960491 13.77322819 264.9413037 13.08984375 268.90625 C12.91747696 269.92303833 12.74511017 270.93982666 12.56752014 271.98742676 C12.20916209 274.0946814 11.84868843 276.20157737 11.48608398 278.30810547 C10.92900927 281.54940268 10.38112604 284.79216906 9.83398438 288.03515625 C9.48230853 290.09644598 9.13011511 292.15764748 8.77734375 294.21875 C8.61378891 295.18832642 8.45023407 296.15790283 8.28172302 297.15686035 C8.12808792 298.0428894 7.97445282 298.92891846 7.81616211 299.84179688 C7.68229599 300.62325073 7.54842987 301.40470459 7.4105072 302.20983887 C7 304 7 304 6 305 C4.03630847 305.0940067 2.06920801 305.11743381 0.10327148 305.11352539 C-1.15796036 305.11344986 -2.4191922 305.11337433 -3.71864319 305.11329651 C-5.10539794 305.1081891 -6.49215229 305.10297309 -7.87890625 305.09765625 C-9.28995209 305.09579201 -10.70099857 305.09436814 -12.11204529 305.09336853 C-15.83240535 305.08954379 -19.5527266 305.0797139 -23.27307129 305.06866455 C-27.06680781 305.05844948 -30.86055058 305.05387071 -34.65429688 305.04882812 C-42.10288231 305.03809158 -49.55143572 305.0210157 -57 305 C-56.29795121 296.058777 -54.67418862 287.35897419 -52.9909668 278.56445312 C-52.67771448 276.9104901 -52.36484473 275.25645457 -52.0523243 273.6023531 C-51.20143661 269.10466483 -50.34523823 264.60800201 -49.48812699 260.11149621 C-48.575719 255.31969856 -47.66834803 250.52694715 -46.76042175 245.73429871 C-45.21107219 237.55935572 -43.65871474 229.3849889 -42.10418701 221.21102905 C-39.68990386 208.5162124 -37.28122319 195.82033647 -34.87353516 183.12426758 C-34.07303397 178.90345083 -33.2724902 174.68264216 -32.47192383 170.46183777 C-32.274489 169.42088984 -32.07705418 168.37994192 -31.87363648 167.30745012 C-30.48148823 159.96800064 -29.08847091 152.62871644 -27.69506836 145.289505 C-23.20273407 121.6267253 -18.72061726 97.96207238 -14.26171875 74.29296875 C-14.01974195 73.00869617 -13.77776516 71.7244236 -13.52845573 70.40123367 C-11.5594669 59.9502307 -9.59177867 49.49898336 -7.62606812 39.04736328 C-6.67138329 33.97142206 -5.71568842 28.89567204 -4.7592411 23.82006264 C-4.2615451 21.17701842 -3.76515974 18.53373044 -3.2688446 15.89042664 C-2.97732069 14.34319642 -2.68572524 12.79597967 -2.39404297 11.2487793 C-2.26552791 10.56218987 -2.13701284 9.87560043 -2.00460339 9.16820526 C-1.4208753 6.07966928 -0.76297462 3.05189847 0 0 Z M39 84 C37.63688278 91.20350725 36.46438088 98.40661509 35.48779297 105.67211914 C35.35095093 106.67513062 35.21410889 107.67814209 35.07312012 108.71154785 C34.62705766 111.98576042 34.18453669 115.26044013 33.7421875 118.53515625 C33.43134082 120.82395306 33.12031296 123.11272526 32.80911255 125.401474 C32.16042462 130.17621444 31.5134027 134.95117659 30.86767578 139.72631836 C30.03859007 145.85693065 29.20610734 151.98707569 28.37249565 158.11707401 C27.73148555 162.83251215 27.09184625 167.54813538 26.45267105 172.26382256 C26.14598822 174.52578662 25.83896933 176.78770515 25.5316124 179.04957771 C25.10420991 182.19701637 24.67855465 185.34468624 24.25341797 188.49243164 C24.12564972 189.43108566 23.99788147 190.36973969 23.86624146 191.33683777 C23.75133362 192.19034821 23.63642578 193.04385864 23.51803589 193.92323303 C23.41739271 194.66665986 23.31674953 195.41008669 23.21305656 196.1760416 C22.96132629 198.02502228 22.96132629 198.02502228 23 200 C33.56 200 44.12 200 55 200 C54.3801915 191.94248952 53.70996479 184.04889941 52.60131836 176.0690918 C52.46462234 175.06257568 52.32792633 174.05605957 52.18708801 173.01904297 C51.74158152 169.74526893 51.29077007 166.47225026 50.83984375 163.19921875 C50.52705895 160.9085585 50.21461019 158.61785235 49.90248108 156.32710266 C49.08548697 150.33776518 48.2639693 144.34905686 47.44146729 138.36047363 C46.600792 132.233532 45.76445263 126.10599867 44.92773438 119.97851562 C43.28936894 107.98509824 41.64621795 95.99234188 40 84 C39.67 84 39.34 84 39 84 Z " fill="#FFFFFF" transform="translate(3836,2478)"/>
<path d="M0 0 C0.65210449 0.16097168 1.30420898 0.32194336 1.97607422 0.48779297 C17.85105045 4.60998061 31.58732127 13.30436223 40.18359375 27.51171875 C54.60010544 52.61655908 53 79.35019055 53 108 C31.88 108 10.76 108 -11 108 C-11.375 89.875 -11.375 89.875 -11.47802734 84.24951172 C-11.06663529 65.05375185 -11.06663529 65.05375185 -18 48 C-23.17188448 43.5304702 -29.28739802 43.38832206 -35.87109375 43.6171875 C-41.684658 44.32846003 -45.30752551 46.2160404 -49.3125 50.4375 C-54.25544816 60.87261278 -54.4373286 71.99986024 -54.38818359 83.32421875 C-54.39225903 84.92079017 -54.39760631 86.51735876 -54.40411377 88.11392212 C-54.41767776 92.41148043 -54.41253435 96.70882034 -54.40297651 101.00638199 C-54.39532282 105.52729076 -54.40244125 110.0481822 -54.40713501 114.5690918 C-54.41257606 122.15774861 -54.40544447 129.74631751 -54.39111328 137.33496094 C-54.37478996 146.07884231 -54.38007964 154.82251374 -54.3965925 163.56639004 C-54.41025461 171.10566459 -54.41210403 178.64487634 -54.40427649 186.18415928 C-54.39962584 190.6730499 -54.39890262 195.16184221 -54.40888596 199.65072632 C-54.41762251 203.87310879 -54.41141314 208.09522348 -54.39420319 212.31757736 C-54.39027375 213.85695326 -54.3913107 215.39635212 -54.39799118 216.93571854 C-54.52222977 235.36239783 -54.52222977 235.36239783 -46 251 C-39.86896606 254.95962609 -33.11693483 254.75562518 -26 254 C-21.91346712 253.03315468 -19.17360908 251.63529914 -16.69921875 248.1875 C-10.52417049 235.97213181 -11.60468866 220.49583518 -11.375 207.1875 C-11.25125 200.855625 -11.1275 194.52375 -11 188 C10.12 188 31.24 188 53 188 C53.54126774 254.57593165 53.54126774 254.57593165 33 279 C32.13375 280.2684375 32.13375 280.2684375 31.25 281.5625 C19.39936774 294.40068494 -0.59562808 300.35324307 -17.66845703 301.17700195 C-19.03147553 301.20326653 -20.39462236 301.22338538 -21.7578125 301.23828125 C-22.49478363 301.24802979 -23.23175476 301.25777832 -23.99105835 301.26782227 C-50.82323233 301.54977279 -76.74441702 300.25211463 -97.625 281 C-116.37241103 261.21106613 -121.13813888 232.37803343 -121.16113281 206.15283203 C-121.16577095 204.77348196 -121.17079692 203.39413314 -121.17617798 202.01478577 C-121.18921359 198.28895563 -121.19573026 194.56314344 -121.20018864 190.8372941 C-121.20313548 188.49949694 -121.20724332 186.16170451 -121.21169281 183.82390976 C-121.22534837 176.48068013 -121.23502286 169.13746152 -121.2388947 161.79422009 C-121.24336205 153.37199404 -121.26085638 144.94993135 -121.2898953 136.5277549 C-121.31166238 129.98295369 -121.32160702 123.43819792 -121.32293582 116.89336097 C-121.32397376 113.00110999 -121.32966097 109.10901293 -121.34775543 105.21680069 C-121.47950218 75.14016551 -120.42419668 41.03474739 -98.19970703 17.95751953 C-73.89915098 -6.01026615 -31.50112898 -7.88507007 0 0 Z " fill="#FFFFFF" transform="translate(3224,2481)"/>
<path d="M0 0 C24.75 0 49.5 0 75 0 C78.37504182 14.6251812 78.37504182 14.6251812 79.44102478 20.3283844 C79.56012775 20.96145488 79.67923073 21.59452536 79.80194288 22.2467798 C80.19077499 24.31712192 80.57576325 26.38815769 80.96069336 28.45922852 C81.2440873 29.97265922 81.52772006 31.48604521 81.81156921 32.9993906 C82.57982591 37.09919769 83.34468332 41.19963225 84.10889888 45.30019426 C84.92664943 49.68477819 85.74754133 54.0687741 86.56800842 58.45285034 C88.14956117 66.90662828 89.72809426 75.36096721 91.30539662 83.81553912 C92.57370558 90.61369627 93.84302656 97.41166371 95.11303711 104.20950317 C99.59302103 128.18968224 104.06716147 152.17094641 108.53719628 176.15298194 C109.62145118 181.96987041 110.7061895 187.78666851 111.7913208 193.60339355 C114.77206532 209.5816472 117.74955743 225.56049444 120.71829224 241.54098511 C121.57029932 246.12712467 122.42378703 250.7129848 123.27853394 255.2986145 C124.26147578 260.57294876 125.24094665 265.84791481 126.21743584 271.12344742 C126.56708206 273.00943602 126.91792075 274.89520402 127.27006721 276.78072739 C127.74066991 279.30170082 128.20687915 281.82344632 128.671875 284.34545898 C128.80869155 285.07270959 128.9455081 285.79996019 129.0864706 286.5492487 C129.6790618 289.78862398 130 292.68837548 130 296 C110.2 296 90.4 296 70 296 C66.40895095 275.35146795 62.97983788 254.74425601 60 234 C45.48 234 30.96 234 16 234 C15.67 237.96 15.34 241.92 15 246 C14.4356416 249.96425341 13.8413201 253.90669479 13.1875 257.85546875 C13.01371826 258.92372391 12.83993652 259.99197906 12.66088867 261.09260559 C12.29670925 263.3239098 11.93023249 265.5548402 11.56152344 267.78540039 C10.99531122 271.21590791 10.43860812 274.64786921 9.8828125 278.08007812 C9.52660189 280.25530015 9.16985106 282.43043379 8.8125 284.60546875 C8.64580811 285.634478 8.47911621 286.66348724 8.30737305 287.72367859 C8.15051025 288.6658876 7.99364746 289.60809662 7.83203125 290.57885742 C7.69514893 291.41092209 7.5582666 292.24298676 7.41723633 293.1002655 C7 295 7 295 6 296 C4.09756238 296.09391296 2.19161541 296.11743658 0.28686523 296.11352539 C-0.9343251 296.11344986 -2.15551544 296.11337433 -3.41371155 296.11329651 C-4.75627686 296.10818911 -6.09884175 296.10297311 -7.44140625 296.09765625 C-8.80761158 296.09579199 -10.17381757 296.09436813 -11.5400238 296.09336853 C-15.14201695 296.08954394 -18.74397 296.07971417 -22.34594727 296.06866455 C-26.01903745 296.05844916 -29.69213409 296.05387064 -33.36523438 296.04882812 C-40.57684123 296.03809184 -47.788415 296.02101614 -55 296 C-54.37991863 287.80143589 -52.95145852 279.81313047 -51.40576172 271.74609375 C-51.13670831 270.32456998 -50.86803774 268.90297371 -50.59971523 267.4813118 C-49.86841351 263.61249911 -49.13180791 259.74471306 -48.39429688 255.87707996 C-47.60474757 251.73129914 -46.8202578 247.58456088 -46.03520203 243.43792725 C-44.68796444 236.32541289 -43.33772746 229.21347358 -41.98538208 222.10192871 C-39.87130972 210.98445309 -37.7631433 199.86586212 -35.65600586 188.74707031 C-34.94704056 185.00640218 -34.23803357 181.26574196 -33.52900696 177.52508545 C-33.35321395 176.59762363 -33.17742094 175.67016181 -32.99630088 174.71459508 C-31.74689685 168.12334003 -30.49664433 161.53224627 -29.24601746 154.94122314 C-24.75875181 131.29144812 -20.28315813 107.63950737 -15.82421875 83.984375 C-15.6872033 83.25749922 -15.55018785 82.53062344 -15.40902042 81.78172112 C-13.83388601 73.42515918 -12.25948969 65.0684583 -10.68547869 56.7116847 C-9.11346541 48.36567198 -7.54048057 40.01984238 -5.96758461 31.67399597 C-3.97786009 21.11609701 -1.9889953 10.55803648 0 0 Z M38 81 C36.62536075 87.54760778 35.48394342 94.08499111 34.57958984 100.71313477 C34.45250137 101.6267276 34.3254129 102.54032043 34.19447327 103.4815979 C33.78005534 106.4677631 33.37020839 109.45453157 32.9609375 112.44140625 C32.67242666 114.53548962 32.38382033 116.62955984 32.09512329 118.72361755 C31.49286442 123.09824347 30.89312628 127.47320659 30.29492188 131.84838867 C29.53004162 137.43966031 28.75677015 143.02973605 27.98134422 148.61955357 C27.38352676 152.93852982 26.79124113 157.25825159 26.20048904 161.57819939 C25.91776925 163.63922741 25.63310595 165.69998985 25.34641647 167.76046944 C24.94570378 170.64497529 24.55274286 173.53043992 24.16162109 176.41625977 C24.04320358 177.25651199 23.92478607 178.09676422 23.80278015 178.96247864 C23.69628647 179.75974365 23.58979279 180.55700867 23.48007202 181.37843323 C23.34016877 182.39735075 23.34016877 182.39735075 23.19743919 183.43685246 C22.90137 187.28041057 23 191.14505565 23 195 C33.23 195 43.46 195 54 195 C52.60468999 181.07339308 50.88011537 167.22630223 48.9609375 153.36328125 C48.67207261 151.26054903 48.38347291 149.15778036 48.09512329 147.05497742 C47.3448317 141.58861495 46.59100099 136.12274656 45.83636475 130.65698242 C45.06319906 125.05222159 44.29347455 119.44698825 43.5234375 113.84179688 C42.01894227 102.89407307 40.51069786 91.94686949 39 81 C38.67 81 38.34 81 38 81 Z " fill="#FFFFFF" transform="translate(2802,2482)"/>
<path d="M0 0 C22.11 0 44.22 0 67 0 C67 85.47 67 170.94 67 259 C90.1 259 113.2 259 137 259 C137 274.18 137 289.36 137 305 C91.46 305 45.92 305 -1 305 C-1.04033135 228.75134396 -1.04033135 228.75134396 -1.04882812 196.98632812 C-1.05078614 189.71492511 -1.05280666 182.44352211 -1.05493164 175.17211914 C-1.05519539 174.26070665 -1.05545914 173.34929417 -1.05573088 172.41026312 C-1.06008589 157.67627627 -1.06797284 142.94229331 -1.0771528 128.20830876 C-1.08648848 113.09890837 -1.09205543 97.98951002 -1.09408849 82.88010687 C-1.0954639 73.54903394 -1.09981543 64.21797199 -1.10791647 54.88690244 C-1.11318288 48.49722868 -1.11480454 42.10756063 -1.11350138 35.71788485 C-1.11285783 32.0256926 -1.11387736 28.33351959 -1.11920547 24.64133072 C-1.12492646 20.64796992 -1.12300116 16.65463461 -1.12025452 12.66127014 C-1.12316736 11.4813347 -1.1260802 10.30139926 -1.12908131 9.0857082 C-1.12609474 7.49429325 -1.12609474 7.49429325 -1.12304783 5.87072849 C-1.12342755 4.94762837 -1.12380727 4.02452825 -1.1241985 3.07345539 C-1 1 -1 1 0 0 Z " fill="#FFFFFF" transform="translate(2502,2091)"/>
<path d="M0 0 C51.15 0 102.3 0 155 0 C155 15.84 155 31.68 155 48 C140.48 48.33 125.96 48.66 111 49 C110.67 130.51 110.34 212.02 110 296 C88.22 296 66.44 296 44 296 C44 214.16 44 132.32 44 48 C29.48 48 14.96 48 0 48 C0 32.16 0 16.32 0 0 Z " fill="#FFFFFF" transform="translate(2929,2482)"/>
</svg>