<svg xmlns="http://www.w3.org/2000/svg" xmlns:xlink="http://www.w3.org/1999/xlink" viewBox="0 0 1315.05 318.08"><defs><style>.cls-1{fill:none;}.cls-1,.cls-2{clip-rule:evenodd;}.cls-2,.cls-8{fill:url(#linear-gradient);}.cls-3{fill:#ff9700;}.cls-4{clip-path:url(#clip-path);}.cls-5{fill:url(#linear-gradient-2);}.cls-6{clip-path:url(#clip-path-2);}.cls-7{fill:url(#linear-gradient-3);}.cls-8{fill-rule:evenodd;}.cls-9{clip-path:url(#clip-path-3);}.cls-10{fill:url(#linear-gradient-5);}.cls-11{fill:url(#linear-gradient-6);}.cls-12{fill:url(#linear-gradient-7);}.cls-13{fill:url(#linear-gradient-8);}.cls-14{fill:url(#linear-gradient-9);}.cls-15{fill:url(#linear-gradient-10);}.cls-16{fill:url(#linear-gradient-11);}</style><linearGradient id="linear-gradient" x1="2.85" y1="159.01" x2="266.41" y2="159.01" gradientUnits="userSpaceOnUse"><stop offset="0.25" stop-color="#82c03f"/><stop offset="1" stop-color="#00823f"/></linearGradient><clipPath id="clip-path"><polygon class="cls-1" points="194.15 -0.06 266.41 -0.06 266.41 72.2 245.29 72.2 245.29 21.05 194.15 21.05 194.15 -0.06"/></clipPath><linearGradient id="linear-gradient-2" x1="77.14" y1="177.28" x2="364.46" y2="-87.66" gradientUnits="userSpaceOnUse"><stop offset="0" stop-color="#ec1c24"/><stop offset="1" stop-color="#fff100"/></linearGradient><clipPath id="clip-path-2"><polygon class="cls-1" points="161.65 33.67 233.91 33.67 233.91 105.93 212.79 105.93 212.79 54.78 161.65 54.78 161.65 33.67"/></clipPath><linearGradient id="linear-gradient-3" x1="44.64" y1="211.01" x2="331.96" y2="-53.93" xlink:href="#linear-gradient-2"/><clipPath id="clip-path-3"><path class="cls-2" d="M193,190.11a82.58,82.58,0,1,1-58.39-141V-.06a131.78,131.78,0,0,0-93.18,225l93.18,93.18,93.18-93.18a131.38,131.38,0,0,0,38.6-93.18h-49.2A82.13,82.13,0,0,1,193,190.11"/></clipPath><linearGradient id="linear-gradient-5" x1="-20.45" y1="305.67" x2="336.37" y2="-46.39" xlink:href="#linear-gradient"/><linearGradient id="linear-gradient-6" x1="123.69" y1="164" x2="123.69" y2="79.87" gradientUnits="userSpaceOnUse"><stop offset="0" stop-color="#ffa643"/><stop offset="0.51" stop-color="#f2932c"/><stop offset="1" stop-color="#f1ab52"/></linearGradient><linearGradient id="linear-gradient-7" x1="2393.12" y1="-6210.63" x2="2393.12" y2="-6264.02" gradientTransform="matrix(0.33, 0.94, -0.94, 0.33, -6522.37, -30.08)" xlink:href="#linear-gradient-6"/><linearGradient id="linear-gradient-8" x1="110.41" y1="160.32" x2="137.86" y2="160.32" xlink:href="#linear-gradient-6"/><linearGradient id="linear-gradient-9" x1="338.67" y1="0.32" x2="338.67" y2="-37.7" gradientTransform="matrix(1, 0.03, -0.03, 1, -159.62, 124.84)" gradientUnits="userSpaceOnUse"><stop offset="0" stop-color="#7ee67a"/><stop offset="1" stop-color="#48da60"/></linearGradient><linearGradient id="linear-gradient-10" x1="262.04" y1="-10.14" x2="262.04" y2="-49.91" xlink:href="#linear-gradient-9"/><linearGradient id="linear-gradient-11" x1="293.68" y1="49.14" x2="293.68" y2="32.73" xlink:href="#linear-gradient-9"/></defs><g id="Layer_1" data-name="Layer 1"><path d="M337.14,214.63l8.48-10.32V68.07l-8.48-10.32V55.92h18.34L414.43,172.2,466.49,55.92H491v1.83l-8.49,10.32V204.31L491,214.63v1.83H458v-1.83l8.49-10.32V63.72L416.26,177.47h-17l-50.23-103V204.31l8.49,10.32v1.83H337.14Z"/><path d="M572.44,216.46l-18.8,45.18c-2.76,8.26-9.18,11.93-16.06,11.93-9.86,0-20-7.11-20-17.2,0-9,11.24-13.3,22.7-13.3a40.35,40.35,0,0,1,16.29,3.21L569,216.46H555.7L515.11,112.57A13.16,13.16,0,0,0,503,104.31h-.46v-2.52h33v2.52c-3.9,0-5.51,2.29-4.13,6l39.45,100.92,38.53-98.62c2.06-5-.46-8.26-5.74-8.26h-2.29v-2.52h23.85v2.52h-.69a12.2,12.2,0,0,0-11.23,7.57Zm-34.17,54.59c4.36,0,9.17-3,12.84-11.47l5.51-13.3C521.07,247.88,527,271.05,538.27,271.05Z"/><path d="M640.55,214.63,647.89,202V59.82l-11.24.23V58.21L664,44.45v74.31c11-13.07,24.77-17.66,41.28-17.66,31.88,0,56.19,20,61.23,49.08,5.74,32.34-12.15,61.69-49.3,66.51-22.48,3-42.2-9.17-53.21-22.7v8l7.34,12.62v1.83H640.55ZM664,186.88c11.92,17.66,30.5,28.89,52.29,26.37,60.09-7.34,39-115.36-20.87-108-14.91,1.83-25.23,8.94-31.42,18.8Z"/><path d="M780,214.63l8.49-10.32V109.36l-9.41-3.67v-1.84l25.46-9.17V204.31L813,214.63v1.83H780ZM794,61.19c6,0,10.09,4.13,10.09,10.1,0,6.19-4.12,10.32-10.09,10.32-6.19,0-10.32-4.13-10.32-10.32C783.66,65.32,787.79,61.19,794,61.19Z"/><path d="M889.62,104.54c-27.07.69-54.36,3.67-65.14,14.45v-17.2H909.8L844.67,213.71C871.73,213,899,210,909.8,199.26v17.2H824.48Z"/><path class="cls-3" d="M1050.62,155.91h-1.38l18.81,51.38,13.3,5.73v3.44H1044V213l7.11-5.27-19-51.84H969.2l.92-2.29h61L997,60.51l-54.58,147,11.69,5.5v3.44H921.27V213l17.66-5.73L995.34,55.92h17.21l35.77,97.7h1.38Z"/><path class="cls-3" d="M1183.63,214.63,1191,202v-3.44c-11,13.08-24.77,17.66-41.28,17.66-31.88,0-56.42-19.95-61.46-49.08-5.74-32.34,12.38-61.69,49.53-66.51,22.48-3,42.2,9.18,53.21,22.71V44.45l27.3,13.76v1.84L1207,59.82V202l7.34,12.62v1.83h-30.74Zm7.34-84.17c-11.92-17.66-30.5-28.9-52.29-26.38-60.09,7.34-39,115.36,20.87,108,14.91-1.83,25.23-8.94,31.42-18.8Z"/><path class="cls-3" d="M1294.86,104.54c-27.06.69-54.35,3.67-65.13,14.45v-17.2h85.32l-65.14,111.92c27.06-.69,54.36-3.67,65.14-14.45v17.2h-85.32Z"/><g class="cls-4"><rect class="cls-5" x="194.14" y="-0.06" width="72.26" height="72.26"/></g><g class="cls-6"><rect class="cls-7" x="161.65" y="33.67" width="72.26" height="72.26"/></g><path class="cls-8" d="M193,190.11a82.58,82.58,0,1,1-58.39-141V-.06a131.78,131.78,0,0,0-93.18,225l93.18,93.18,93.18-93.18a131.38,131.38,0,0,0,38.6-93.18h-49.2A82.13,82.13,0,0,1,193,190.11"/><g class="cls-9"><rect class="cls-10" x="-10.02" y="-0.06" width="276.42" height="318.14"/></g><path class="cls-11" d="M144.92,76.71a21.17,21.17,0,0,0-20.84,17.52c-.35,1.37-.32,9.79-.32,9.8,0,1.51.94,11-8.16,20.1s-19.3,7.45-19.3,7.45v0a14.58,14.58,0,1,0,14.1,14.09h0s-1.64-10.21,7.45-19.3,18.41-8,19.93-8c0,0,6,.67,7.11.66a21.18,21.18,0,1,0,0-42.35Z"/><path class="cls-12" d="M187.21,148.89a13.44,13.44,0,0,0-14.89-8.76c-.9.08-5.93,1.88-5.94,1.88a16.38,16.38,0,0,1-13.75-.62,15.1,15.1,0,0,1-8.54-10h0a9.25,9.25,0,1,0-5.45,11.41l0,0a15.1,15.1,0,0,1,13.11.37c7.37,3.51,8.7,9.32,9,10.23,0,0,.87,3.73,1.11,4.4a13.44,13.44,0,0,0,25.34-9Z"/><path class="cls-13" d="M136.56,160.32a9.26,9.26,0,1,1-9.26-9.26A9.26,9.26,0,0,1,136.56,160.32Z"/><path class="cls-14" d="M185.06,136.44H185a2.87,2.87,0,0,1-2.78-3,45.93,45.93,0,0,0-10.48-30.73,2.88,2.88,0,1,1,4.44-3.66,51.66,51.66,0,0,1,11.78,34.58A2.87,2.87,0,0,1,185.06,136.44Z"/><path class="cls-15" d="M89,122.83a2.88,2.88,0,0,1-2.79-3.59,51.89,51.89,0,0,1,30.35-35,2.87,2.87,0,0,1,2.2,5.31,46.12,46.12,0,0,0-27,31.15A2.88,2.88,0,0,1,89,122.83Z"/><path class="cls-16" d="M136.28,183.66c-.57,0-1.13,0-1.7,0a51.77,51.77,0,0,1-31.86-12.34,2.87,2.87,0,1,1,3.73-4.37,45.94,45.94,0,0,0,52.91,4.77,2.88,2.88,0,0,1,2.9,5A51.62,51.62,0,0,1,136.28,183.66Z"/></g></svg>